<svg width="22" height="20" fill="none" xmlns="http://www.w3.org/2000/svg"><path d="M20.796 2.667h-2.75v2a1.43 1.43 0 0 1-.443 1.037c-.14.136-.307.244-.49.318a1.553 1.553 0 0 1-1.649-.318 1.464 1.464 0 0 1-.327-.476 1.428 1.428 0 0 1-.116-.561v-2H7.012v2c0 .389-.159.762-.443 1.037-.283.275-.668.43-1.069.43a1.54 1.54 0 0 1-1.07-.43 1.444 1.444 0 0 1-.442-1.037v-2h-2.75a1.257 1.257 0 0 0-.882.35A1.155 1.155 0 0 0 0 3.874v14.92a1.155 1.155 0 0 0 .344.844 1.255 1.255 0 0 0 .86.362h19.592a1.255 1.255 0 0 0 .86-.362 1.183 1.183 0 0 0 .343-.845V3.873a1.157 1.157 0 0 0-.343-.845 1.256 1.256 0 0 0-.86-.362ZM5.5 16H4.125v-1.333H5.5V16Zm0-3.333H4.125v-1.334H5.5v1.334Zm0-3.334H4.125V8H5.5v1.333ZM9.625 16H8.25v-1.333h1.375V16Zm0-3.333H8.25v-1.334h1.375v1.334Zm0-3.334H8.25V8h1.375v1.333ZM13.75 16h-1.375v-1.333h1.375V16Zm0-3.333h-1.375v-1.334h1.375v1.334Zm0-3.334h-1.375V8h1.375v1.333ZM17.875 16H16.5v-1.333h1.375V16Zm0-3.333H16.5v-1.334h1.375v1.334Zm0-3.334H16.5V8h1.375v1.333Z" fill="#fff"/><path d="M5.5 5.333c.182 0 .357-.07.486-.195a.657.657 0 0 0 .201-.471v-4a.657.657 0 0 0-.201-.472.698.698 0 0 0-.973 0 .657.657 0 0 0-.201.472v4c0 .176.072.346.201.471a.699.699 0 0 0 .486.195Zm10.998 0a.7.7 0 0 0 .487-.195.656.656 0 0 0 .201-.471v-4a.656.656 0 0 0-.201-.472.698.698 0 0 0-.973 0 .657.657 0 0 0-.201.472v4c0 .176.072.346.201.471a.698.698 0 0 0 .486.195Z" fill="#fff"/></svg>