<svg width="22" height="22" fill="none" xmlns="http://www.w3.org/2000/svg"><path d="M11 21.335c5.709 0 10.337-4.627 10.337-10.335C21.337 5.292 16.709.665 11 .665S.663 5.292.663 11c0 5.708 4.628 10.335 10.337 10.335Z" fill="#fff"/><path d="M15.242 10.873c-.4-.057-.756.263-1.07.464-.675.431-1.271.931-1.847 1.495-.356.349-.837.813-.964 1.315-.059.232.014.498.06.725.08.396.205.78.328 1.164.14.43.302.854.485 1.268.091.208.19.415.289.62.09.193.151.307.375.336.25.033.501-.005.75-.016.368-.013.736-.05 1.099-.111.48-.081.962-.169 1.421-.332.425-.153.911-.39 1.157-.78.528-.84.847-1.791 1.023-2.762a4.58 4.58 0 0 0 .1-.853c.001-.253.023-.512-.159-.706-.326-.35-.713-.641-1.114-.904-.593-.385-1.213-.82-1.933-.923ZM3.58 6.82c-.373.198-.665.669-.883 1.014-.437.688-.79 1.482-.954 2.28-.126.613.148 1.21.352 1.775.2.544.547.976.926 1.404.097.11.219.192.315.3.11.123.25.238.394.319.103.058.196-.021.3-.045.277-.067.483-.208.734-.34.225-.12.457-.222.684-.342.487-.262 1.066-.477 1.49-.836.056-.046.128-.105.143-.178.04-.184-.015-.423-.024-.61a23.06 23.06 0 0 1-.015-.788c-.002-.595.02-1.19.02-1.784.005-.332.047-.662.031-.993-.027-.494-.56-.669-.96-.769-.563-.139-1.128-.33-1.702-.4-.237-.026-.63-.124-.85-.007Zm14.59-1.483c.054-.373-.195-.822-.376-1.155a6.123 6.123 0 0 0-1.509-1.838c-.488-.397-1.206-.558-1.875-.625-1.198-.122-2.112-.048-2.365-.009-.254.04-.493.117-.629.285-.268.327-.315.795-.371 1.197-.083.574-.155 1.165-.08 1.743.013.103.028.238.078.33.095.168.294.252.492.34 1.024.452 2.978 1.57 3.296 1.722.475.229.98-.076 1.33-.321.487-.342 1.028-.664 1.458-1.05.177-.159.519-.4.552-.62ZM3.456 18.123a.58.58 0 0 0 .145.16c.101.077.197.156.294.24.84.737 1.825 1.293 2.801 1.825.294.162.574.327.873.476.323.16.657.269 1.004.365.235.065.474.129.718.153.227.022.46.075.688.079.13.002.25-.004.378-.02-.062-.1-.117-.228-.17-.334-.084-.167-.17-.335-.256-.5-.1-.191-.177-.39-.279-.58-.079-.144-.182-.293-.324-.378-.191-.113-.373-.225-.581-.31-.76-.308-1.44-.745-2.147-1.154-.358-.208-.708-.43-1.045-.672-.18-.129-.356-.263-.547-.378-.04-.026-.079-.057-.125-.064a.6.6 0 0 0-.146 0 2.467 2.467 0 0 0-.119.02c-.247.05-.515.116-.772.173-.244.055-.517.074-.75.163-.092.034-.081.086-.045.165a1.5 1.5 0 0 0 .22.34c.056.074.127.143.185.23Z" fill="#000"/><path d="M6.43 8.305a.309.309 0 0 1-.24-.502C6.272 7.7 8.256 5.27 11.803 4.72a.308.308 0 1 1 .093.608c-3.302.514-5.21 2.84-5.228 2.862a.308.308 0 0 1-.24.115Zm-.732 10.79a.303.303 0 0 1-.24-.113c-.083-.103-2.038-2.558-1.826-6.14a.308.308 0 1 1 .613.037c-.196 3.346 1.673 5.692 1.692 5.714a.308.308 0 0 1-.24.502Zm2.323 1.21a.308.308 0 0 1-.024-.615c.03-.002 3.024-.284 5.296-2.735a.31.31 0 0 1 .452.422c-2.44 2.63-5.565 2.916-5.696 2.928H8.02ZM3.74 7.935a.305.305 0 0 1-.3-.249c-.018-.086-.406-2.122.43-4.536a.307.307 0 0 1 .392-.19.31.31 0 0 1 .191.391C3.67 5.61 4.04 7.547 4.044 7.568a.309.309 0 0 1-.304.367Zm8.956-5.055a.3.3 0 0 1-.182-.061c-.015-.01-1.619-1.174-3.986-1.434a.307.307 0 1 1 .066-.612c2.54.277 4.214 1.497 4.285 1.549a.31.31 0 0 1 .063.431.297.297 0 0 1-.246.128Zm7.78 5.014a.311.311 0 0 1-.241-.115c-1.502-1.858-3.341-2.571-3.359-2.578a.31.31 0 0 1-.18-.397.31.31 0 0 1 .397-.18c.082.03 2.014.78 3.62 2.767a.307.307 0 0 1-.047.433.289.289 0 0 1-.19.07Zm-5.44 4.166a.306.306 0 0 1-.304-.349c.393-2.945.006-5.121.001-5.144a.306.306 0 0 1 .248-.357.307.307 0 0 1 .359.247c.015.093.409 2.295.002 5.337a.308.308 0 0 1-.306.266Zm-2.675 2.517c-.01 0-.017 0-.027-.002-3.83-.339-6.35-2.5-6.456-2.59a.31.31 0 0 1-.03-.435.308.308 0 0 1 .434-.031c.026.02 2.484 2.123 6.107 2.442a.308.308 0 0 1-.028.616ZM1.363 11.045a2.28 2.28 0 0 1-.808-.134.31.31 0 0 1-.18-.397.312.312 0 0 1 .398-.18c.568.216 1.326-.006 1.334-.008a.306.306 0 0 1 .382.208.308.308 0 0 1-.205.383c-.026.007-.431.128-.921.128Zm16.799 2.629a.31.31 0 0 1-.129-.588c.017-.008 1.808-.855 3.171-2.808a.305.305 0 0 1 .428-.077c.14.098.174.288.078.428-1.461 2.095-3.338 2.978-3.417 3.016a.334.334 0 0 1-.13.03Zm0 5.203a.322.322 0 0 1-.196-.067c-.705-.555-1.387-1.564-1.416-1.605a.314.314 0 1 1 .522-.35c.007.008.657.967 1.284 1.46.136.108.16.306.053.443a.326.326 0 0 1-.247.119Z" fill="#000"/><path d="M11 21.952C4.96 21.952.048 17.04.048 11 .048 4.962 4.96.048 11 .048s10.952 4.914 10.952 10.95c0 6.042-4.914 10.954-10.952 10.954ZM11 1.28c-5.36 0-9.72 4.36-9.72 9.72 0 5.359 4.36 9.72 9.718 9.72 5.36 0 9.72-4.361 9.72-9.72.002-5.36-4.36-9.72-9.718-9.72Z" fill="#000"/></svg>