<svg width="25" height="25" fill="none" xmlns="http://www.w3.org/2000/svg"><g clip-path="url(#a)"><path d="M16.337 0H8.662C1.66 0 0 1.66 0 8.663v7.674c0 7.004 1.66 8.664 8.663 8.664h7.675C23.34 25 25 23.34 25 16.337V8.663C25 1.66 23.323 0 16.337 0Zm3.845 17.834h-1.815c-.688 0-.9-.545-2.136-1.798-1.074-1.042-1.55-1.18-1.815-1.18-.374 0-.48.106-.48.619v1.64c0 .44-.139.704-1.303.704-1.925 0-4.06-1.164-5.558-3.333-2.259-3.178-2.877-5.559-2.877-6.05 0-.266.106-.513.614-.513h1.819c.46 0 .635.211.814.704.9 2.596 2.397 4.87 3.015 4.87.228 0 .333-.106.333-.688v-2.68c-.069-1.238-.72-1.344-.72-1.783 0-.212.175-.423.456-.423h2.86c.387 0 .529.211.529.667v3.617c0 .39.175.529.28.529.228 0 .424-.138.846-.562 1.307-1.465 2.242-3.723 2.242-3.723.122-.265.334-.513.794-.513h1.82c.545 0 .667.28.545.671-.228 1.058-2.454 4.2-2.454 4.2-.191.317-.264.455 0 .809.196.265.83.814 1.254 1.306.777.883 1.375 1.624 1.534 2.136.179.509-.085.774-.598.774h.002Z" fill="#fff"/></g><defs><clipPath id="a"><path fill="#fff" d="M0 0h25v25H0z"/></clipPath></defs></svg>