<svg width="25" height="25" fill="none" xmlns="http://www.w3.org/2000/svg"><path d="M12.504 0C7.285 0 5.76.005 5.463.03 4.392.119 3.725.288 2.999.65c-.56.277-1 .599-1.436 1.05C.77 2.524.289 3.537.115 4.74c-.085.585-.11.705-.114 3.69-.002.995 0 2.305 0 4.062 0 5.215.006 6.74.03 7.035.087 1.043.25 1.698.597 2.415A5.266 5.266 0 0 0 4.04 24.73c.516.133 1.085.206 1.816.24.31.014 3.464.024 6.621.024 3.157 0 6.315-.004 6.616-.02.846-.04 1.338-.105 1.88-.245a5.234 5.234 0 0 0 3.414-2.794c.339-.7.511-1.38.589-2.368.017-.216.024-3.65.024-7.078 0-3.43-.008-6.857-.025-7.072-.078-1.004-.25-1.679-.6-2.392a4.957 4.957 0 0 0-1.07-1.466c-.828-.79-1.84-1.27-3.044-1.444-.584-.085-.7-.11-3.688-.115h-4.069Z" fill="url(#a)"/><path d="M12.504 0C7.285 0 5.76.005 5.463.03 4.392.119 3.725.288 2.999.65c-.56.277-1 .599-1.436 1.05C.77 2.524.289 3.537.115 4.74c-.085.585-.11.705-.114 3.69-.002.995 0 2.305 0 4.062 0 5.215.006 6.74.03 7.035.087 1.043.25 1.698.597 2.415A5.266 5.266 0 0 0 4.04 24.73c.516.133 1.085.206 1.816.24.31.014 3.464.024 6.621.024 3.157 0 6.315-.004 6.616-.02.846-.04 1.338-.105 1.88-.245a5.234 5.234 0 0 0 3.414-2.794c.339-.7.511-1.38.589-2.368.017-.216.024-3.65.024-7.078 0-3.43-.008-6.857-.025-7.072-.078-1.004-.25-1.679-.6-2.392a4.957 4.957 0 0 0-1.07-1.466c-.828-.79-1.84-1.27-3.044-1.444-.584-.085-.7-.11-3.688-.115h-4.069Z" fill="url(#b)"/><path d="M12.498 3.269c-2.506 0-2.82.01-3.805.056-.983.045-1.653.2-2.24.428a4.519 4.519 0 0 0-1.635 1.065 4.53 4.53 0 0 0-1.065 1.634c-.229.587-.385 1.258-.429 2.24-.044.985-.055 1.3-.055 3.806 0 2.507.01 2.82.055 3.805.046.982.201 1.653.43 2.24a4.522 4.522 0 0 0 1.063 1.635c.513.513 1.028.83 1.635 1.065.587.228 1.258.384 2.24.429.985.044 1.299.055 3.805.055 2.507 0 2.82-.01 3.805-.055.982-.045 1.654-.2 2.241-.43a4.515 4.515 0 0 0 1.634-1.064 4.53 4.53 0 0 0 1.065-1.635c.227-.587.383-1.258.429-2.24.044-.985.055-1.298.055-3.805 0-2.506-.011-2.821-.055-3.805-.046-.983-.202-1.654-.43-2.24a4.53 4.53 0 0 0-1.064-1.635 4.51 4.51 0 0 0-1.635-1.065c-.588-.228-1.259-.383-2.242-.428-.984-.045-1.297-.056-3.805-.056h.003Zm-.828 1.663h.828c2.465 0 2.757.009 3.73.053.9.041 1.388.192 1.713.318.43.167.738.367 1.06.69.324.323.524.63.691 1.062.127.325.277.813.318 1.713.044.973.054 1.265.054 3.728s-.01 2.755-.054 3.728c-.04.9-.191 1.389-.318 1.713a2.84 2.84 0 0 1-.69 1.06 2.83 2.83 0 0 1-1.06.69c-.326.128-.814.278-1.714.319-.973.044-1.266.054-3.73.054s-2.756-.01-3.729-.054c-.9-.042-1.388-.192-1.714-.318a2.858 2.858 0 0 1-1.061-.69 2.861 2.861 0 0 1-.69-1.061c-.127-.325-.278-.814-.318-1.713-.045-.973-.054-1.266-.054-3.73 0-2.465.01-2.756.054-3.729.04-.9.191-1.388.317-1.713a2.86 2.86 0 0 1 .691-1.062 2.85 2.85 0 0 1 1.061-.69c.326-.127.814-.277 1.714-.318.851-.039 1.181-.05 2.901-.052v.002Zm5.755 1.532a1.107 1.107 0 1 0 0 2.216 1.107 1.107 0 0 0 0-2.216Zm-4.927 1.294a4.74 4.74 0 1 0 .001 9.48 4.74 4.74 0 0 0 0-9.48Zm0 1.664a3.076 3.076 0 1 1 0 6.152 3.076 3.076 0 0 1 0-6.152Z" fill="#fff"/><defs><radialGradient id="a" cx="0" cy="0" r="1" gradientUnits="userSpaceOnUse" gradientTransform="matrix(0 -24.7708 23.0444 0 6.64 26.919)"><stop stop-color="#FD5"/><stop offset=".1" stop-color="#FD5"/><stop offset=".5" stop-color="#FF543E"/><stop offset="1" stop-color="#C837AB"/></radialGradient><radialGradient id="b" cx="0" cy="0" r="1" gradientUnits="userSpaceOnUse" gradientTransform="rotate(78.678 -3.192 -1.654) scale(11.0728 45.6527)"><stop stop-color="#3771C8"/><stop offset=".128" stop-color="#3771C8"/><stop offset="1" stop-color="#60F" stop-opacity="0"/></radialGradient></defs></svg>