<svg width="25" height="25" fill="none" xmlns="http://www.w3.org/2000/svg"><path fill-rule="evenodd" clip-rule="evenodd" d="M9.132.009 8.116.052c-4.38.184-6.27.999-7.197 3.104C.407 4.318.163 5.75.04 8.32c-.055 1.134-.055 7.203 0 8.364.123 2.635.385 4.104.941 5.27.584 1.223 1.425 1.917 2.888 2.385 1.584.506 3.6.66 8.64.66 5.432 0 7.495-.189 9.097-.832 1.913-.768 2.796-2.195 3.161-5.107.177-1.413.21-2.25.228-5.878.025-4.97-.069-6.815-.433-8.488-.608-2.8-1.993-3.976-5.218-4.437a28.855 28.855 0 0 0-2.346-.21c-.55-.03-7.308-.064-7.867-.04Zm3.427 1.549c.077.285.14.87.25 2.277.166 2.168.396 3.33.872 4.415.582 1.325 1.722 2.464 3.065 3.06 1.076.476 2.26.707 4.553.888 1.432.113 1.904.166 2.135.239.337.107-.138.187-2.01.34-1.366.112-1.803.16-2.454.268-1.852.308-3.102.905-4.13 1.972-.878.911-1.419 2.03-1.718 3.554-.154.789-.212 1.295-.378 3.304-.092 1.112-.173 1.657-.249 1.657-.083 0-.15-.515-.298-2.298-.182-2.177-.359-3.167-.748-4.173-.608-1.573-1.755-2.77-3.278-3.42-1.068-.456-2.117-.657-4.434-.849-1.37-.113-1.46-.121-1.83-.176-.288-.042-.453-.086-.453-.119 0-.087.52-.159 2.049-.284 2.063-.169 2.878-.289 3.805-.56 1.982-.58 3.405-1.86 4.137-3.72.39-.99.6-2.164.753-4.223.088-1.173.181-1.996.253-2.228.028-.091.07-.061.108.076Z" fill="red"/></svg>