<svg width="18" height="18" viewBox="0 0 22 22" fill="none" xmlns="http://www.w3.org/2000/svg"><g clip-path="url(#a)"><g clip-path="url(#b)"><path d="M8.493 3.431C3.31 5.27-.407 8.253.238 10.072c.645 1.82 5.411 1.795 10.595-.043 5.184-1.839 8.9-4.822 8.255-6.641-.645-1.82-5.41-1.795-10.595.043Zm-7.165 9.714 1.584 4.467c.645 1.82 5.411 1.795 10.595-.043 5.183-1.839 8.9-4.822 8.255-6.641L20.178 6.46c-.478.658-1.068 1.238-1.772 1.796-1.741 1.402-4.124 2.672-6.905 3.658-2.78.986-5.43 1.501-7.666 1.509-.898.01-1.722-.069-2.507-.278Z" fill="#000"/></g></g><defs><clipPath id="a"><path fill="#000" d="M0 0h22v22H0z"/></clipPath><clipPath id="b"><path fill="#000" transform="rotate(-19.525 19.218 6.094)" d="M0 0h20v15H0z"/></clipPath></defs></svg>