<svg width="25" height="25" fill="none" xmlns="http://www.w3.org/2000/svg"><path fill-rule="evenodd" clip-rule="evenodd" d="M5.463.03C5.759.005 7.285 0 12.504 0h4.069c2.932.005 3.098.03 3.655.11l.033.005c1.205.173 2.216.654 3.043 1.444.463.446.783.882 1.07 1.466.35.713.523 1.388.601 2.392.017.215.025 3.642.025 7.072 0 3.429-.007 6.862-.024 7.078-.078.987-.25 1.668-.59 2.368a5.234 5.234 0 0 1-3.412 2.794c-.543.14-1.035.206-1.88.246-.302.015-3.46.019-6.617.019s-6.312-.01-6.621-.023c-.731-.035-1.3-.108-1.816-.24a5.266 5.266 0 0 1-3.412-2.789c-.346-.717-.51-1.372-.596-2.415C.007 19.232 0 17.707 0 12.492V8.43c.005-2.935.029-3.1.11-3.66l.004-.03C.29 3.538.77 2.525 1.563 1.7A4.99 4.99 0 0 1 2.999.65C3.725.287 4.392.118 5.463.03Zm3.23 3.295c.984-.045 1.299-.056 3.805-.056h-.003c2.508 0 2.821.01 3.806.056.982.045 1.653.2 2.241.428a4.51 4.51 0 0 1 1.635 1.065 4.53 4.53 0 0 1 1.065 1.635c.227.586.383 1.257.429 2.24.044.984.055 1.299.055 3.805 0 2.507-.011 2.82-.055 3.805-.046.982-.202 1.653-.43 2.24a4.53 4.53 0 0 1-1.064 1.635 4.515 4.515 0 0 1-1.634 1.065c-.587.228-1.259.384-2.241.429-.985.044-1.298.055-3.805.055-2.506 0-2.82-.01-3.805-.055-.982-.045-1.653-.2-2.24-.43a4.518 4.518 0 0 1-1.635-1.064 4.522 4.522 0 0 1-1.064-1.635c-.228-.587-.384-1.258-.429-2.24-.044-.985-.055-1.298-.055-3.805 0-2.506.011-2.821.055-3.806.044-.982.2-1.653.429-2.24a4.53 4.53 0 0 1 1.065-1.634 4.519 4.519 0 0 1 1.635-1.065c.587-.228 1.257-.383 2.24-.428Zm3.498 1.607h-.52V4.93c-1.72.002-2.05.013-2.902.052-.9.04-1.388.19-1.714.318-.43.167-.738.367-1.061.69a2.86 2.86 0 0 0-.69 1.062c-.127.325-.277.814-.318 1.713-.045.973-.054 1.264-.054 3.729 0 2.464.01 2.757.054 3.73.04.9.191 1.388.317 1.713.168.43.368.737.691 1.06.323.323.63.523 1.061.69.326.127.814.277 1.714.319.973.044 1.265.054 3.73.054 2.463 0 2.756-.01 3.729-.054.9-.041 1.388-.191 1.713-.318a2.84 2.84 0 0 0 1.06-.69c.324-.323.524-.63.691-1.06.127-.325.277-.814.318-1.714.044-.973.054-1.265.054-3.728s-.01-2.755-.054-3.728c-.04-.9-.191-1.389-.318-1.713a2.865 2.865 0 0 0-.69-1.062 2.854 2.854 0 0 0-1.06-.69c-.326-.126-.814-.277-1.714-.318-.974-.044-1.266-.053-3.73-.053h-.307Zm4.126 2.64a1.108 1.108 0 1 1 2.214 0 1.108 1.108 0 0 1-2.214 0ZM7.76 12.498a4.74 4.74 0 1 1 9.48 0 4.74 4.74 0 0 1-9.48 0Zm7.816 0a3.076 3.076 0 1 0-6.153 0 3.076 3.076 0 0 0 6.153 0Z" fill="#fff"/></svg>