<svg viewBox="0 0 20 20" fill="gray" xmlns="http://www.w3.org/2000/svg"><path xmlns="http://www.w3.org/2000/svg" d="m14.1 14.5-.9-.9 1.3-3.9 1.4-.4 2.8 1.6a8.9 8.9 0 0 1-1.2 3.8h-3.4zm2 1.6c-.7.7-1.6 1.3-2.5 1.7l.7-2h2c-.1.1-.1.2-.2.3zm-4.2-3.2H8.1L6.9 9.3 10 7l3.1 2.3zm.1 5.5c-.6.2-1.3.2-2 .2s-1.3-.1-2-.2l-1-3 1.1-1.1h3.8l1.1 1.1zm-6.1-3.9H2.6c-.7-1.1-1.1-2.4-1.2-3.8l2.8-1.6 1.4.4 1.3 3.9zm-2 1.6c-.1-.1-.1-.2-.2-.2h2l.7 2c-.9-.5-1.8-1.1-2.5-1.8zM2.5 5.7l.7 2.4-1.8 1c.1-1.2.5-2.3 1.1-3.4zm1.4-1.8c.7-.7 1.4-1.2 2.2-1.6l3.2 2.2v1.4L6 8.3l-1.4-.4-1.1-3.6c.2-.1.3-.3.4-.4zM10 1.4c.8 0 1.6.1 2.3.3L10 3.3 7.7 1.7c.7-.2 1.5-.3 2.3-.3zm6.1 2.5.4.4-1.1 3.6-1.4.4-3.3-2.4V4.5l3.2-2.2c.8.4 1.5.9 2.2 1.6zm1.4 1.8c.6 1.1 1 2.2 1.1 3.4l-1.9-1zm-.4-2.8C15.2 1 12.7 0 10 0S4.8 1 2.9 2.9 0 7.3 0 10s1 5.2 2.9 7.1S7.3 20 10 20s5.2-1 7.1-2.9S20 12.7 20 10s-1-5.2-2.9-7.1z"/></svg>