<svg xmlns="http://www.w3.org/2000/svg" viewBox="0 0 912.37 120.95"><defs><style>.cls-1{opacity:.75}.cls-2{fill:#fff}</style></defs><g id="Слой_2" data-name="Слой 2"><g id="Слой_1-2" data-name="Слой 1"><g class="cls-1"><path class="cls-2" d="M659.41 39.44Q657 53.8 648.17 59.57q6.39 4.46 6.39 14.68a35.2 35.2 0 0 1-.48 5.94l-1.77 11.39q-2.37 14.85-9.41 22.11T623.32 121H537L555.29.33h85.42q20.84 0 20.83 21a53.92 53.92 0 0 1-.71 8.41Zm-82.11 33-2.25 14.68h42.36c1.49 0 2.44-1 2.84-3l1.3-8.74a1.57 1.57 0 0 1 .06-.5 1 1 0 0 0 .06-.33c0-1.43-.68-2.14-2-2.14Zm4.26-27.72h42.35c1.5 0 2.45-1 2.84-3l.59-4.62a1.57 1.57 0 0 1 .06-.5 1 1 0 0 0 .06-.33c0-1.43-.67-2.14-2-2.14h-42.37Zm127.07-.83h54.07l-4.5 29.21h-54.07l-2 13.2h71.82l-5.22 34.7H662.84L681.18.33h105.89L781.75 35h-71.82ZM819.61 121l13-86h-40.33L797.6.33h114.77L907 35h-40.3l-13 86Z"/></g><g class="cls-1"><path class="cls-2" d="M101.35 43.56q22.66 0 22.66 21a49.79 49.79 0 0 1-.77 8.41l-3.09 18.32q-5 29.37-31.55 29.37H0L5.67 86H81.9c1.63 0 2.66-1 3.09-3l1.16-7.26a1.57 1.57 0 0 1 .06-.5.78.78 0 0 0 .07-.33 1.91 1.91 0 0 0-2.19-2.14H34.25q-22.53 0-22.53-21a49.79 49.79 0 0 1 .77-8.41l2.32-14Q19.57 0 46.36 0h85.25l-5.8 34.65H52.93c-1.72 0-2.71.94-3 2.81l-.51 3.13a2.77 2.77 0 0 0-.13 1q0 2 2.19 2Zm64.13 77.06 14.16-86h-43.91L141.52 0h124.92l-5.8 34.65h-43.91l-14.17 86ZM375.12 0q20.48 0 20.48 18.65a34 34 0 0 1-.19 3.63c-.13 1.21-.28 2.47-.45 3.79l-15.59 94.55h-37.08L348 86h-47.57l-5.66 34.66h-37.09l15.58-94.55q2.19-13 9.34-19.55T301.85 0Zm-69.79 56.76h47.52l3.22-19.3v-.67a1.92 1.92 0 0 0-2.19-2.14h-42.37c-1.72 0-2.71.94-3 2.81Zm129.16 63.86 14.16-86h-43.91L410.54 0h124.91l-5.8 34.65h-43.91l-14.16 86Z"/></g></g></g></svg>