<svg style="enable-background:new 0 0 64 64" viewBox="0 0 64 64" xml:space="preserve" xmlns="http://www.w3.org/2000/svg"><style>.st0{fill:#231f20}</style><g id="News"><path class="st0" d="M60 58H4c-1.1 0-2-.9-2-2V8c0-1.1.9-2 2-2h56c1.1 0 2 .9 2 2v48c0 1.1-.9 2-2 2zM4 56h56V8H4v48z"/><path class="st0" d="M32 30H11c-.6 0-1-.4-1-1V13c0-.6.4-1 1-1h21c.6 0 1 .4 1 1v16c0 .6-.4 1-1 1zm-20-2h19V14.1H12V28zm42 11H10c-.6 0-1-.4-1-1s.4-1 1-1h44c.6 0 1 .4 1 1s-.4 1-1 1zm0 5H10c-.6 0-1-.4-1-1s.4-1 1-1h44c.6 0 1 .4 1 1s-.4 1-1 1zm0 5H10c-.6 0-1-.4-1-1s.4-1 1-1h44c.6 0 1 .4 1 1s-.4 1-1 1z"/><path class="st0" d="m20.7 26-4.1-5-4.9 4.7-1.4-1.4 6.4-6.3 4.1 5 6.1-7.1 5.9 8-1.6 1.2-4.4-6z"/></g></svg>