<svg width="20" height="20" fill="none" xmlns="http://www.w3.org/2000/svg"><path fill="#ffcd00" d="M17.528 0 20 2.472v15.057l-2.47 2.47H2.47L0 17.53V2.469L2.473 0h15.055zm-1.53 4.235h-3.451a.733.733 0 0 0-.522.215l-1.426 1.426a.728.728 0 0 0-.215.52v6.414c0 .199.076.383.215.52l1.426 1.427a.728.728 0 0 0 .522.215h3.45a.73.73 0 0 0 .523-.215l1.426-1.426a.726.726 0 0 0 .215-.521V6.397a.728.728 0 0 0-.215-.521L16.52 4.45a.73.73 0 0 0-.522-.215zm-11.508 0H1.913a.073.073 0 0 0-.077.077v1.702c0 .046.032.077.077.077h2.516c.2 0 .368.168.368.368v6.58c0 .046-.031.078-.076.078H1.913c-.045 0-.077.03-.077.076v1.703c0 .046.032.076.077.076h7.624c.046 0 .077-.03.077-.076v-1.703c0-.045-.031-.076-.077-.076H6.73c-.046 0-.077-.032-.077-.078V6.397a.728.728 0 0 0-.215-.521L5.012 4.45a.73.73 0 0 0-.522-.215zM15.937 6.09c.2 0 .368.168.368.368v6.29a.374.374 0 0 1-.368.367h-3.33a.364.364 0 0 1-.367-.368V6.46c0-.2.154-.368.368-.368z"/><path fill="#fff" d="M15.998 4.234c.2 0 .384.077.522.215l1.426 1.427c.14.138.215.322.215.52v6.414c0 .2-.076.382-.215.52l-1.426 1.427a.73.73 0 0 1-.522.215h-3.45a.733.733 0 0 1-.523-.215L10.6 13.33a.727.727 0 0 1-.215-.52V6.395c0-.198.076-.382.215-.52l1.426-1.427a.73.73 0 0 1 .522-.215zm-11.508 0c.2 0 .384.078.522.216l1.426 1.427a.724.724 0 0 1 .215.52v6.643c0 .046.03.077.077.077h2.808c.045 0 .076.03.076.076v1.703c0 .046-.031.076-.076.076H1.913c-.045 0-.077-.03-.077-.076v-1.703c0-.045.032-.076.077-.076H4.72c.046 0 .076-.031.076-.077V6.46c0-.2-.168-.368-.368-.368H1.913a.074.074 0 0 1-.077-.078V4.312c0-.046.032-.077.077-.077zM15.937 6.09H12.61a.363.363 0 0 0-.37.368v6.29c0 .197.155.367.37.367h3.328c.2 0 .368-.17.368-.368V6.46c0-.2-.168-.368-.368-.368z"/></svg>