<svg width="18" height="18" viewBox="0 0 24 24" fill="none" xmlns="http://www.w3.org/2000/svg"><path d="M12 21c-5 0-9-4-9-9 0-.6.4-1 1-1s1 .4 1 1c0 3.9 3.1 7 7 7 1.9 0 3.6-.7 5-2 .4-.4 1-.4 1.4 0 .4.4.4 1 0 1.4-1.7 1.7-4 2.6-6.4 2.6Z" fill="green"/><path d="M19.7 13c-.6 0-1-.4-1-1 0-3.9-3.1-7-7-7-1.9 0-3.6.7-5 2-.3.4-1 .4-1.4 0-.4-.4-.4-1 0-1.4C7 3.9 9.3 3 11.7 3c5 0 9 4 9 9 0 .6-.4 1-1 1Z" fill="#FD0202"/><path d="M20 13c-.2 0-.4-.1-.6-.2L16 10.3c-.4-.3-.5-1-.2-1.4.3-.4 1-.5 1.4-.2l3.4 2.5c.4.3.5 1 .2 1.4-.2.3-.5.4-.8.4Z" fill="#FF1506"/><path d="M7.6 15.5c-.2 0-.4-.1-.6-.2l-3.4-2.5c-.4-.3-.5-1-.2-1.4.3-.4.9-.5 1.4-.2l3.4 2.5c.4.3.5 1 .2 1.4-.2.3-.5.4-.8.4Z" fill="green"/><path d="M1.5 16.4c-.2 0-.4-.1-.6-.2-.4-.3-.5-1-.2-1.4l2.5-3.4c.3-.4.9-.5 1.4-.2.4.3.5 1 .2 1.4L2.3 16c-.2.3-.5.4-.8.4Z" fill="green"/><path d="M19.974 13.374c-.2 0-.4-.1-.6-.2-.4-.3-.5-1-.2-1.4l2.5-3.4c.3-.4 1-.5 1.4-.2.4.3.5 1 .2 1.4l-2.5 3.4c-.2.3-.5.4-.8.4Z" fill="#FE0606"/><path d="M19.974 13.374c-.2 0-.4-.1-.6-.2-.4-.3-.5-1-.2-1.4l2.5-3.4c.3-.4 1-.5 1.4-.2.4.3.5 1 .2 1.4l-2.5 3.4c-.2.3-.5.4-.8.4Z" fill="#FE0606"/></svg>