<svg style="width:100%" xmlns="http://www.w3.org/2000/svg" data-name="Layer 1" viewBox="0 0 512 512"><path fill="#e3232e" d="M278.56 385.26 111.81 419c-22.11 4.47-43.89-12.17-48.67-37.16L8.43 95.26c-4.77-25 9.28-48.87 31.38-53.33l166.76-33.7c22.1-4.47 43.89 12.16 48.66 37.15l54.71 286.55c4.78 24.98-9.28 48.86-31.38 53.33Z"/><path fill="#fed947" d="m355.71 501.28-157-70.68c-20.8-9.36-31.06-36.33-22.9-60.23l93.54-274C277.53 72.45 301 60.67 321.82 70l157 70.68c20.81 9.37 31.06 36.33 22.91 60.23L408.15 475c-8.15 23.87-31.63 35.65-52.44 26.28Z"/><path fill="#fed947" d="m355.71 501.28-157-70.68c-20.8-9.36-31.06-36.33-22.9-60.23l93.54-274C277.53 72.45 301 60.67 321.82 70l157 70.68c20.81 9.37 31.06 36.33 22.91 60.23L408.15 475c-8.15 23.87-31.63 35.65-52.44 26.28Z"/></svg>