<svg width="27" height="27" fill="none" xmlns="http://www.w3.org/2000/svg"><g clip-path="url(#a)" fill="#fff"><path d="M20.866 8.686c-.211.234-.52.362-.825.338-.112-.005-.198-.102-.183-.204.004-.112.101-.198.203-.183a.61.61 0 0 0 .517-.21.658.658 0 0 0-.049-.931.667.667 0 0 0-.931.048.663.663 0 0 0-.165.527.187.187 0 0 1-.161.221c-.111.016-.206-.05-.222-.16a1.034 1.034 0 0 1 .25-.856 1.052 1.052 0 0 1 1.478-.078c.447.403.472 1.062.088 1.488Z"/><path d="m20.23 8.943-.46.511a.196.196 0 0 1-.284.015.196.196 0 0 1-.015-.284l.46-.511a.098.098 0 0 0-.007-.142l-.362-.326a.098.098 0 0 0-.142.008l-.46.511a.196.196 0 0 1-.284.015.196.196 0 0 1-.015-.284l.46-.511a.496.496 0 0 1 .7-.027l.362.327a.496.496 0 0 1 .047.698Z"/><path d="M19.707 15.05a4.457 4.457 0 0 1-2.827 1.448 4.402 4.402 0 0 1-3.46-1.107c-.308-.279-.544-.317-.922-.175-.15.058-.297.137-.474.248l-5.348 3.539a.198.198 0 0 1-.234-.018l-1.087-.979a.196.196 0 0 1-.015-.284l5.795-6.435a.196.196 0 0 1 .283-.015l.522.47c.032.03.073.027.101-.005l.94-1.044c.03-.032.027-.072-.005-.101l-.522-.47a.196.196 0 0 1-.014-.284l.671-.746a4.435 4.435 0 0 1 3.313-1.473c1.28-.006 2.454.532 3.327 1.49 1.37 1.523 1.491 3.851.31 5.527-.133.17-.239.287-.354.415ZM6.584 18.592l5.22-3.44c.196-.133.384-.234.553-.293.528-.2.918-.12 1.323.245a4.046 4.046 0 0 0 3.17 1.022 4.064 4.064 0 0 0 2.866-1.684c1.087-1.529.966-3.644-.274-5.03a3.956 3.956 0 0 0-3.025-1.355A4.045 4.045 0 0 0 13.4 9.392l-.537.597.372.335a.453.453 0 0 1 .034.648l-.94 1.044a.453.453 0 0 1-.648.034l-.373-.335-5.535 6.147.81.73Z"/><path d="M18.445 14.01a2.8 2.8 0 0 1-3.949.207 2.8 2.8 0 0 1-.207-3.948 2.8 2.8 0 0 1 3.949-.207 2.8 2.8 0 0 1 .207 3.949Zm-3.879-3.491a2.404 2.404 0 0 0 .179 3.401c.99.892 2.51.813 3.401-.178.892-.99.813-2.51-.178-3.402a2.414 2.414 0 0 0-3.402.179Zm-2.938-.08a.196.196 0 0 1-.283.015L9.63 8.909a.196.196 0 0 1-.015-.283.196.196 0 0 1 .283-.015l1.716 1.545a.196.196 0 0 1 .014.283Zm-.566.629a.186.186 0 0 1-.2.05l-2.235-.603c-.103-.035-.169-.133-.134-.237.035-.103.134-.169.237-.134l2.234.604c.104.035.17.133.135.237.011.03-.017.061-.037.083Zm1.132-1.258a.182.182 0 0 1-.068.055c-.099.046-.214-.02-.25-.109l-.833-2.16c-.046-.098.02-.213.109-.249.099-.045.214.02.249.11l.834 2.158c.034.07.007.142-.04.195Z"/></g><defs><clipPath id="a"><path fill="#fff" transform="rotate(-48 15.734 6.179)" d="M0 0h18.351v18.351H0z"/></clipPath></defs></svg>