<svg xmlns="http://www.w3.org/2000/svg" viewBox="0 0 20 20"><path fill="none" d="M9.346 0 7.245 6.847.404 6.832 0 8.141l5.544 4.213-2.129 6.837L4.473 20l5.526-4.242L15.526 20l1.058-.809-2.129-6.837L20 8.141l-.403-1.309-6.843.015L10.655 0z"/><path fill="gray" d="M9.346 0 7.245 6.847.404 6.832 0 8.141l5.544 4.213-2.129 6.837L4.473 20 10 15.758 15.526 20l1.058-.809-2.129-6.837L20 8.141l-.403-1.309-6.843.015L10.655 0zm-.947 7.793L10 2.575l1.601 5.218.656.5 5.212-.011-4.223 3.211-.251.809 1.622 5.209-4.212-3.23h-.81l-4.21 3.23 1.621-5.209-.251-.809L2.53 8.282l5.214.011.655-.5z"/></svg>