<svg width="20" height="12" fill="none" xmlns="http://www.w3.org/2000/svg"><rect width="20" height="12" rx="1" fill="#fff"/><path fill="#000" d="M1.111 1h17.778v10H1.111z"/><path d="M2.943 3.182 4.67 8.08h.069l1.727-4.898h.739L5.068 9h-.727L2.205 3.182h.738ZM7.85 9h-.738l2.136-5.818h.727L12.111 9h-.739L9.634 4.102h-.046L7.85 9Zm.273-2.273H11.1v.625H8.122v-.625ZM13.017 9V3.182h1.966c.454 0 .828.077 1.12.233.29.153.507.364.647.633.14.27.21.575.21.918 0 .343-.07.647-.21.912-.14.265-.355.473-.645.625-.29.15-.66.224-1.11.224h-1.592v-.636h1.569c.31 0 .56-.046.75-.136a.86.86 0 0 0 .414-.387c.088-.168.131-.37.131-.602a1.35 1.35 0 0 0-.13-.61.892.892 0 0 0-.418-.404c-.191-.097-.444-.145-.759-.145h-1.238V9h-.705Zm2.739-2.614L17.187 9h-.818L14.96 6.386h.796Z" fill="#fff"/></svg>