<svg xmlns="http://www.w3.org/2000/svg" xmlns:xlink="http://www.w3.org/1999/xlink"><style><![CDATA[svg>svg:not(:target){display:none}]]></style><defs><path d="m31.135 0 8.025 4.47L44 12.42l-4.84 4.36-3.035-2.239V30H13.86l-.001-15.447-3.018 2.227L6 12.42l4.84-7.95L18.755.061c1.345 1.596 3.429 2.394 6.25 2.394 3.15 0 5.072-1.343 6.13-2.456z" transform="translate(-6)" id="soccerJersey"/><path d="m31.056 6 9.67 4.271 3.095 14.21L44 36.76h-6.502l-1.204-14.714-.758-.846-.182 15.56h-20.29l-.465-15.712-.893.998-1.204 14.714H6l.107-12.28 3.095-14.21 9.55-4.244c1.376 1.527 3.457 2.29 6.241 2.29 3.03 0 4.948-1.221 6.063-2.316z" transform="translate(-6 -6)" id="hockeyJersey"/><path d="m25.632.003 4.634 1.751s-1.149 1.728-1.149 5.856c0 4.13 2.062 5.46 2.062 5.46V30H9V13.101s2.262-1.393 2.262-5.49c0-3.817-1.149-5.604-1.307-5.831h-.018l.015-.005-.015-.02.068-.001 4.556-1.75.071.33c.924 4.122 2.73 6.184 5.418 6.184 4.054 0 5.522-6.249 5.582-6.515z" transform="translate(-9 .002)" id="basketballJersey"/><path d="m35.456 0 4.543 4.539v30.922L35.456 40H4.543L0 35.461V19.3h8.261V4.539L12.805 0h22.651zm-.566 1.366H13.371L9.629 5.105v30.356l-3.176 3.172H34.89l3.742-3.739V5.105L34.89 1.366zm-26.629 19.3H1.368v14.228l3.446 3.444 3.447-3.444V20.666zM35.87 31.734v1.365H12.393v-1.365H35.87zm0-4.112v1.366H12.393v-1.366H35.87zm0-4.185v1.365H12.393v-1.365H35.87zm0-4.134v1.366H12.393v-1.366H35.87zM14.846 6.875c.062 0 .126.012.193.04.066.027.122.06.166.106l1.374 1.372c.044.045.079.1.106.167a.51.51 0 0 1 .04.194v6.049c0 .043.023.065.067.065h2.533c.045 0 .067.023.067.066v1.534c0 .044-.022.065-.067.065h-6.866c-.045 0-.067-.021-.067-.065v-1.534c0-.043.022-.066.067-.066h2.533c.044 0 .067-.022.067-.065v-5.93a.33.33 0 0 0-.093-.24.329.329 0 0 0-.241-.093h-2.266c-.045 0-.067-.022-.067-.067V6.942c0-.045.022-.067.067-.067zm20.966-.045v9.673H21.375V6.83h14.437zm-1.368 1.365H22.743v6.942h11.7V8.195z" id="reportPlaceholder" fill="#999" fill-rule="evenodd"/><path d="M1.976 1.6 0 3.577v5.977l1.978 1.977H7.45v1.662H1.654v1.099H14.35v-1.1h-5.8v-1.66h5.473L16 9.553V3.577L14.025 1.6H1.976zM1.1 9.098V4.033l1.332-1.335h11.137L14.9 4.033v5.065l-1.333 1.333H2.433L1.1 9.098z" id="streamIcon" fill="currentColor" fill-rule="evenodd"/><path clip-rule="evenodd" d="M.6 6.4 7 0l6.4 6.4-.7.7-5.2-5.3V14h-1V1.8L1.3 7.1l-.7-.7z" id="arrowSlim" fill="currentColor" fill-rule="evenodd"/><g id="soccerField" fill="none" fill-rule="evenodd"><path stroke="#0F2D37" stroke-width="2" d="M1 363V1h590v362H1zm295 1V0"/><path stroke="#0F2D37" stroke-width="2" d="M591 291h-95V73h95"/><path stroke="#0F2D37" stroke-width="2" d="M592 233h-33V131h33M0 233h32V131H0"/><path stroke="#0F2D37" stroke-width="2" d="M0 291h95V73H0m296 59c27.615 0 50 22.386 50 50s-22.385 50-50 50-50-22.386-50-50 22.385-50 50-50zM95 142c12.686 8.65 21 23.115 21 39.499 0 16.386-8.314 30.85-21 39.501m401-79c-12.686 8.65-21 23.115-21 39.499 0 16.386 8.314 30.85 21 39.501M592 9a9 9 0 0 1-9-9m9 355a9 9 0 0 0-9 9M0 9a9 9 0 0 0 9-9M0 355a9 9 0 0 1 9 9"/><path fill="#0F2D37" d="M185 296a3.001 3.001 0 0 1-6 0 3 3 0 0 1 6 0" transform="rotate(-90 182 182)"/></g><g id="hockeyField" fill="none" fill-rule="evenodd"><path stroke="#C8CDCD" stroke-width="2" d="M591 287.544c0 21.105-9.2 40.208-24.063 54.038-14.89 13.854-35.46 22.418-58.18 22.418H83.245c-22.72 0-43.292-8.564-58.182-22.419C10.2 327.751 1 308.65 1 287.544V77.455c0-21.105 9.2-40.208 24.063-54.037C39.953 9.564 60.525 1 83.245 1h425.511c22.72 0 43.292 8.564 58.182 22.418C581.8 37.247 591 56.35 591 77.455zM295.5 0v364M36 14v336M209 0v365"/><path stroke="#C8CDCD" stroke-width="2" d="M35 160c12.15 0 22 9.85 22 22s-9.85 22-22 22m83-145v9h9m-9 15v-9h9m-21-15v9h-9m9 15v-9h-9"/><path stroke="#C8CDCD" stroke-width="2" d="M112 111c-22.091 0-40-17.908-40-40 0-22.09 17.909-40 40-40s40 17.909 40 40c0 22.092-17.909 40-40 40zm8 0v8m-16-8v8m16-95v8m-16-8v8"/><path fill="#C8CDCD" d="M50 40a3 3 0 1 1-6 0 3 3 0 0 1 6 0" transform="rotate(90 64 88)"/><path stroke="#C8CDCD" stroke-width="2" d="M486 59v9h9m-9 15v-9h9m-21-15v9h-9m9 15v-9h-9"/><path stroke="#C8CDCD" stroke-width="2" d="M480 111c-22.091 0-40-17.908-40-40 0-22.09 17.909-40 40-40s40 17.909 40 40c0 22.092-17.909 40-40 40zm8 0v8m-16-8v8m16-95v8m-16-8v8"/><path fill="#C8CDCD" d="M50 40a3 3 0 1 1-6 0 3 3 0 0 1 6 0" transform="rotate(90 248 272)"/><path stroke="#C8CDCD" stroke-width="2" d="M118 281v9h9m-9 15v-9h9m-21-15v9h-9m9 15v-9h-9"/><path stroke="#C8CDCD" stroke-width="2" d="M112 333c-22.091 0-40-17.908-40-40 0-22.09 17.909-40 40-40s40 17.909 40 40c0 22.092-17.909 40-40 40zm8 0v8m-16-8v8m16-95v8m-16-8v8"/><path fill="#C8CDCD" d="M50 40a3 3 0 1 1-6 0 3 3 0 0 1 6 0" transform="rotate(90 -47 199)"/><path stroke="#C8CDCD" stroke-width="2" d="M486 281v9h9m-9 15v-9h9m-21-15v9h-9m9 15v-9h-9"/><path stroke="#C8CDCD" stroke-width="2" d="M480 333c-22.091 0-40-17.908-40-40 0-22.09 17.909-40 40-40s40 17.909 40 40c0 22.092-17.909 40-40 40zm8 0v8m-16-8v8m16-95v8m-16-8v8"/><path fill="#C8CDCD" d="M50 40a3 3 0 1 1-6 0 3 3 0 0 1 6 0" transform="rotate(90 137 383)"/><path stroke="#C8CDCD" stroke-width="2" d="M556 15v334M383 0v365m174-205c-12.15 0-22 9.85-22 22s9.85 22 22 22m-261 17c-21.539 0-39-17.46-39-39 0-21.539 17.461-39 39-39s39 17.461 39 39c0 21.54-17.461 39-39 39zm-29 143c0-16.017 12.984-29 29-29s29 12.983 29 29"/><path fill="#C8CDCD" d="M100 360a3 3 0 1 1-6 0 3 3 0 0 1 6 0m170 0a3 3 0 1 1-6 0 3 3 0 0 1 6 0M100 232a3 3 0 1 0-6 0 3 3 0 0 0 6 0m170 0a3 3 0 1 0-6 0 3 3 0 0 0 6 0" transform="rotate(90 296 296)"/></g><g id="basketballField" fill="none" fill-rule="evenodd" transform="rotate(90 296 296)"><path stroke="#0F2D37" stroke-width="2" d="M1 1h363v590H1z"/><g transform="translate(1.703)"><path stroke="#0F2D37" stroke-width="2" d="M341.475 1v100.664c-17.356 35.064-39.457 61.382-66.324 78.932-26.902 17.574-58.576 26.35-95.017 26.35-36.438 0-68.002-8.775-94.683-26.348-26.646-17.55-48.416-43.866-65.332-78.93V1h321.356z"/><path stroke="#0F2D37" stroke-width="2" d="M125.455 1h111.909v133.045H125.455z"/><path stroke="#0F2D37" stroke-width="2" d="M140.153 1h82.513v133.045h-82.513z"/><path stroke="#0F2D37" stroke-width="2" d="M210.418 26.781v16.002c-2.795 7.22-6.623 12.657-11.517 16.283-4.905 3.635-10.874 5.437-17.896 5.437-7.025 0-13.03-1.804-18.005-5.44-4.963-3.628-8.894-9.066-11.824-16.288V26.78h59.242zm27.199 21.504h5.563m-5.563 8.594h5.563m-5.563 22.098h5.563m-5.563 23.326h5.563M118.809 48.285h5.562m-5.562 8.594h5.562m-5.562 22.098h5.562m-5.562 23.326h5.562M0 179.647h15.361m331.267 0h15.361m-221.612-45.83c0 18.307 14.907 40.513 41.058 40.513s41.057-22.375 41.057-40.513"/><path stroke="#0F2D37" stroke-dasharray="10 10" stroke-width="2" d="M140.377 132.59c.543-14.125 12.186-40.514 41.058-40.514s41.057 25.737 41.057 40.513"/><path fill="#0F2D37" d="M150.176 22.098h61.242v3.683h-61.242z"/><ellipse cx="180.797" cy="36.83" stroke="#0F2D37" stroke-width="2" rx="7.349" ry="7.366"/></g><path stroke="#0F2D37" stroke-width="2.5" d="M22.072 590.75h320.856V490.395c-17.33-34.993-39.39-61.262-66.21-78.782-26.864-17.548-58.493-26.309-94.88-26.309-36.386 0-67.904 8.76-94.546 26.306-26.599 17.519-48.33 43.787-65.22 78.778V590.75z"/><path stroke="#0F2D37" stroke-width="2.5" d="M127.408 590.75h111.41V458.205h-111.41z"/><path stroke="#0F2D37" stroke-width="2.5" d="M142.106 590.75h82.013V458.205h-82.013z"/><path stroke="#0F2D37" stroke-width="2.5" d="M211.871 564.969v-15.705c-2.773-7.148-6.565-12.535-11.416-16.13-4.864-3.604-10.784-5.387-17.747-5.387-6.966 0-12.923 1.786-17.857 5.392-4.92 3.596-8.814 8.985-11.722 16.135v15.696h58.742z"/><path stroke="#0F2D37" stroke-width="2" d="M239.32 543.715h5.563m-5.563-8.594h5.563m-5.563-22.098h5.563m-5.563-23.326h5.563m-124.37 54.018h5.561m-5.562-8.594h5.562m-5.562-22.098h5.562m-5.562-23.326h5.562M1.704 412.353h15.36m331.267 0h15.361M142.08 458.232c0-18.307 14.907-40.514 41.058-40.514s41.057 22.375 41.057 40.514"/><path stroke="#0F2D37" stroke-dasharray="10 10" stroke-width="2" d="M142.08 459.46c.543 14.123 12.186 40.513 41.058 40.513s41.057-25.737 41.057-40.514"/><g transform="matrix(1 0 0 -1 151.88 569.902)"><path fill="#0F2D37" d="M0 0h61.242v3.683H0zm29.396 3.683h2.45v3.683h-2.45z"/><ellipse cx="30.621" cy="14.732" stroke="#0F2D37" stroke-width="2" rx="7.349" ry="7.366"/></g><path d="M0 0h2.45v3.683H0z" transform="translate(181.275 25.781)" fill="#0F2D37"/><path stroke="#0F2D37" stroke-width="2" d="M1 296.5h363"/><circle cx="182" cy="297" r="49" stroke="#0F2D37" stroke-width="2"/><circle cx="181.5" cy="296.5" r="19.5" stroke="#0F2D37" stroke-width="2"/></g></defs><symbol id="leaderboard" viewBox="0 0 20 20"><path fill="currentColor" fill-rule="evenodd" d="M2.86 14.518c.102 0 .196.038.266.108l.727.73c.07.07.11.164.11.265v1.152c0 .008-.008.015-.016.024l-.43.43a.036.036 0 0 0 0 .055l.43.439c.008.008.015.015.015.023v1.151a.373.373 0 0 1-.109.267l-.727.729a.37.37 0 0 1-.266.11H.04a.037.037 0 0 1-.04-.04v-.87c0-.015.015-.039.04-.039h2.79a.185.185 0 0 0 .187-.189v-1.418c0-.03-.039-.046-.063-.023l-.305.299c-.008.008-.015.008-.023.008H.601c-.016 0-.038-.017-.038-.032v-.87c0-.023.022-.039.038-.039H2.83a.19.19 0 0 0 .188-.186v-.965a.189.189 0 0 0-.188-.173H.04c-.024 0-.039-.016-.039-.039v-.869c0-.023.015-.038.04-.038zM20 16.57v1.377H6.206V16.57H20zM2.86 7.316c.102 0 .196.04.266.11l.727.728c.07.071.11.165.11.267v1.057c0 .07-.032.125-.094.165L.961 11.538c-.016.008-.016.024-.016.032v.242c0 .023.016.04.04.04h2.938c.024 0 .04.015.04.038v.87c0 .023-.016.04-.04.04H.04c-.024 0-.039-.017-.039-.04V11.1c0-.008.007-.025.015-.032l2.986-1.927c.008-.008.016-.016.016-.03v-.66a.19.19 0 0 0-.188-.187H.04c-.025 0-.04-.016-.04-.039v-.869c0-.024.015-.04.04-.04zM20 9.311v1.377H6.206V9.311H20zM1.352.001c.102 0 .196.039.267.109l.726.729c.07.07.11.164.11.266v3.392c0 .022.016.039.039.039h1.43c.024 0 .039.016.039.039v.869c0 .024-.015.039-.04.039H.04c-.023 0-.04-.015-.04-.04v-.868c0-.023.017-.04.04-.04h1.43a.037.037 0 0 0 .04-.038V1.136a.19.19 0 0 0-.19-.188H.039a.037.037 0 0 1-.04-.04V.04A.04.04 0 0 1 .04 0zM20 2.053V3.43H6.206V2.053H20z"/></symbol><symbol id="modalClose" viewBox="0 0 16 16"><path fill="currentColor" d="M15.206 0 8 7.206.794 0 0 .792 7.207 8 0 15.208.794 16 8 8.793 15.206 16l.794-.792L8.793 8 16 .792z"/></symbol><symbol id="close" viewBox="0 0 20 20" fill="currentColor"><path d="m19 0-9 9-9-9-1 1 9 9-9 9 1 1 9-9 9 9 1-1-9-9 9-9z"/></symbol><symbol id="filter" viewBox="0 0 12 10" fill="currentColor"><path d="M12 0H0v2h12V1zm-2 4H2v2h8V5zM8 8H4v2h4V9z"/></symbol><symbol id="play" viewBox="0 0 20 20" fill="currentColor"><path d="M2 0v20l16.988-10L2 0Zm1.365 2.387L16.298 10 3.365 17.613V2.387Z" id="Fill-1"/></symbol><symbol id="star" viewBox="0 0 20 20"><path fill="var(--color-symbol-star-fill, currentColor)" d="M9.346 0 7.245 6.847.404 6.832 0 8.141l5.544 4.213-2.129 6.837L4.473 20l5.526-4.242L15.526 20l1.058-.809-2.129-6.837L20 8.141l-.403-1.309-6.843.015L10.655 0z"/><path fill="var(--color-symbol-star-outline, currentColor)" d="M9.346 0 7.245 6.847.404 6.832 0 8.141l5.544 4.213-2.129 6.837L4.473 20 10 15.758 15.526 20l1.058-.809-2.129-6.837L20 8.141l-.403-1.309-6.843.015L10.655 0zm-.947 7.793L10 2.575l1.601 5.218.656.5 5.212-.011-4.223 3.211-.251.809 1.622 5.209-4.212-3.23h-.81l-4.21 3.23 1.621-5.209-.251-.809L2.53 8.282l5.214.011.655-.5z"/></symbol><symbol id="winner" viewBox="0 0 20 20" fill="currentColor" stroke="none"><path d="M17.528 0 20 2.471v15.06L17.53 20H2.468L0 17.53V2.47L2.471.001h15.057zm-.57 1.373H3.041L1.374 3.041v13.92l1.664 1.665h13.923l1.665-1.666V3.041l-1.668-1.668zM10 3.433l5.878 5.878-.97.972-4.22-4.219v9.8H9.311v-9.8l-4.219 4.22-.97-.973 5.876-5.878z"/></symbol><symbol id="draw" viewBox="0 0 20 20" fill="none" stroke="currentColor"><path d="M0 0v8.963h5.513V5.168h1.789l1.667 1.667v6.328L7.3 14.834l-1.787-.001v-3.795H0V20h5.513v-3.793l2.357.001 2.472-2.475v-2.701h4.145v3.45H20V5.52h-5.513v4.138h-4.145V6.265L7.871 3.794H5.513V0H0Zm1.374 7.588h2.765V1.374H1.374v6.214Zm14.488 5.52h2.765V6.893h-2.765v6.215ZM1.374 18.626h2.765v-6.213H1.374v6.213Z"/></symbol><symbol id="sound" viewBox="0 0 20 20" fill="none" stroke="currentColor"><path d="M12.408 2v15.858h-3.01l-5.521-4.83H0V6.83h3.877L9.398 2h3.01zm4.274.187A10.597 10.597 0 0 1 20 9.93c0 2.953-1.178 5.703-3.318 7.741l-.943-.989a9.246 9.246 0 0 0 2.894-6.752 9.245 9.245 0 0 0-2.894-6.753zm-5.641 1.179H9.912L4.391 8.197l-3.024.007v3.457h3.024l5.521 4.831h1.129V3.366zm3.972 2.361a7.029 7.029 0 0 1 1.38 4.202c0 1.526-.477 2.98-1.38 4.202l-1.101-.81a5.676 5.676 0 0 0 1.114-3.392c0-1.23-.385-2.403-1.114-3.39z"/></symbol><symbol id="sound-off" viewBox="0 0 20 20" fill="none" stroke="currentColor"><path d="M12.43 2v15.884H9.412l-5.53-4.838H0V6.838h3.883L9.413 2h3.016zm-1.37 1.369H9.927l-5.53 4.837-3.028.008v3.464h3.028l5.53 4.837h1.131V3.369zm7.972 3.334.968.97-2.27 2.27L20 12.21l-.968.971-2.27-2.27-2.27 2.27-.968-.97 2.27-2.269-2.27-2.269.969-.97 2.27 2.27 2.27-2.27z"/></symbol><symbol id="headphones" viewBox="0 0 20 20" fill="currentColor"><path d="M6.606 2 3.45 5.166v3.729h-.978L0 11.368v4.061l2.472 2.473h3.732V8.895h-1.38V5.733l2.352-2.36h5.648l2.355 2.36v3.162h-1.38v9.007h3.73L20 15.429v-4.061l-2.47-2.473h-.977V5.166L13.395 2H6.606zm8.566 8.269h1.788l1.666 1.669v2.922l-1.666 1.668h-1.788v-6.259zM1.373 14.86v-2.922l1.669-1.669H4.83v6.259H3.042L1.373 14.86z"/></symbol><symbol id="pause" viewBox="0 0 20 20" fill="currentColor"><path d="M7.991 0v20H1.3V0h6.691ZM18.64 0v20h-6.691V0h6.691ZM6.624 1.366H2.667v17.267h3.957V1.366Zm10.648 0h-3.956v17.267h3.956V1.366Z" id="Combined-Shape"/></symbol><symbol id="stream" viewBox="0 0 20 20" fill="currentColor"><path d="M17.527 3.5 20 5.971v8.16L17.531 16.6H2.469L0 14.131v-8.16L2.473 3.5h15.054Zm-.569 1.373H3.041L1.374 6.541v7.02l1.665 1.665h13.922l1.665-1.665v-7.02l-1.668-1.668ZM7.586 6.281l5.87 3.769-5.87 3.77V6.281Z"/></symbol><symbol id="stream-locked" viewBox="0 0 20 20" fill="currentColor"><path d="M15.518 10.896a2.952 2.952 0 0 1 2.95 2.945H20v4.137l-2.072 2.073h-4.827l-2.07-2.07v-4.14h1.538a2.952 2.952 0 0 1 2.95-2.945Zm0 4.329c-.595 0-1.077.483-1.077 1.077 0 .356.184.656.45.852v1.519h1.254v-1.52c.266-.195.45-.495.45-.851 0-.594-.482-1.077-1.077-1.077ZM17.526 3.5l2.472 2.472v7.807a4.466 4.466 0 0 0-1.375-3.161V6.541l-1.666-1.667H3.043L1.376 6.541v7.019l1.664 1.665h6.615v1.374H2.47L0 14.13V5.972L2.474 3.5h15.053Zm-2.008 8.769c-.867 0-1.572.705-1.573 1.572h3.147a1.577 1.577 0 0 0-1.574-1.572ZM7.585 6.28l5.868 3.77-5.868 3.77V6.28Z"/></symbol><symbol id="arrow" viewBox="0 0 14 14" fill="currentColor" fill-rule="evenodd"><path clip-rule="evenodd" d="M.6 6.4 7 0l6.4 6.4-.7.7-5.2-5.3V14h-1V1.8L1.3 7.1l-.7-.7z"/></symbol><symbol id="sortArrow" viewBox="0 0 8 4" fill="currentColor"><path d="M4 0 0 4h8z"/></symbol><symbol id="showMoreIcon" viewBox="0 0 12 12" fill="currentColor"><path d="M11.413 3 5.999 8.415.586 3.001 0 3.588l5.999 6 6-6.001L11.414 3z"/></symbol><symbol id="calendar" viewBox="0 0 20 20"><path d="M5.514 0v1.381h3.799V0h1.374v1.381h3.808V0h1.373v1.381h1.661L20 3.853v13.676L17.529 20H2.473L0 17.529V3.853l2.472-2.472H4.14V0h1.374zm13.112 6.894H1.375v10.065l1.667 1.667h13.917l1.667-1.667V6.894zM5.517 13.803v2.756h-1.38v-2.756h1.38zm3.446 0v2.756h-1.38v-2.756h1.38zm3.455 0v2.756h-1.38v-2.756h1.38zm-6.9-4.836v2.76H4.136v-2.76h1.38zm3.446 0v2.76H7.582v-2.76h1.381zm3.454 0v2.76h-1.38v-2.76h1.38zm3.455 0v2.76h-1.381v-2.76h1.38zM4.14 2.755H3.042L1.375 4.423v1.098h17.251V4.423l-1.667-1.668h-1.091v1.374h-1.373V2.755h-3.808v1.374H9.313V2.755H5.514v1.374H4.14V2.755z"/></symbol><symbol id="settings" viewBox="0 0 20 20" fill="currentColor"><path d="m12.31 0 .18 2.868.793.33 2.153-1.9 3.267 3.266-1.9 2.155.328.791L20 7.691v4.618l-2.868.181-.328.791 1.9 2.158-3.267 3.263-2.153-1.899-.793.328-.18 2.87H7.69l-.18-2.87-.794-.328-2.156 1.9-3.265-3.264 1.9-2.158-.328-.79L0 12.308V7.691l2.868-.18.328-.792-1.9-2.155 3.265-3.267 2.156 1.901.793-.33L7.691 0h4.618Zm-1.29 1.374H8.98L8.827 3.81l-2.375.983-1.83-1.613-1.443 1.442 1.615 1.83-.985 2.376-2.435.151v2.041l2.435.151.985 2.377L3.18 15.38l1.441 1.44 1.832-1.613 2.375.983.153 2.436h2.04l.152-2.436 2.375-.983 1.831 1.613 1.442-1.44-1.614-1.832.984-2.377 2.436-.15V8.978l-2.436-.15-.984-2.378 1.614-1.829-1.442-1.442-1.83 1.613-2.376-.983-.153-2.436ZM10 6.32A3.687 3.687 0 0 1 13.683 10 3.688 3.688 0 0 1 10 13.684 3.688 3.688 0 0 1 6.317 10 3.687 3.687 0 0 1 10 6.319Zm0 1.374A2.311 2.311 0 0 0 7.69 10 2.312 2.312 0 0 0 10 12.31 2.312 2.312 0 0 0 12.309 10a2.311 2.311 0 0 0-2.31-2.307Z"/></symbol><symbol id="info" viewBox="0 0 20 20" fill="currentColor"><path d="M10 0c5.514 0 10 4.485 10 9.999S15.514 20 10 20 0 15.513 0 9.999C0 4.485 4.486 0 10 0zm0 1.374c-4.756 0-8.626 3.87-8.626 8.625 0 4.757 3.87 8.627 8.626 8.627 4.757 0 8.626-3.87 8.626-8.627 0-4.755-3.869-8.625-8.626-8.625zm1.035 5.52v6.21h2.07v2.07h-6.21v-2.07h2.07v-4.14h-2.07v-2.07h4.14zm0-3.45v2.07h-2.07v-2.07h2.07z"/></symbol><symbol id="pesapallo" viewBox="0 0 20 20" fill="currentColor"><path d="M16.1 16.104c-1.504 1.505-3.434 2.298-5.404 2.456a7.622 7.622 0 0 1 .109-1.528l.915.245.355-1.33-.92-.245a7.585 7.585 0 0 1 1.311-2.262l.67.669.971-.971-.671-.671a7.645 7.645 0 0 1 2.26-1.317l.248.927 1.327-.355-.246-.921a7.445 7.445 0 0 1 1.532-.104c-.159 1.97-.953 3.902-2.457 5.407M1.442 10.678c.08.002.16.014.24.014.559 0 1.109-.061 1.65-.161l.264.984 1.326-.355-.27-1.008a8.936 8.936 0 0 0 2.863-1.666l.744.744.972-.971-.725-.724a8.96 8.96 0 0 0 1.677-2.876l.975.26.355-1.328-.986-.264a8.984 8.984 0 0 0 .152-1.887c1.977.154 3.912.948 5.421 2.458 1.51 1.51 2.305 3.45 2.458 5.43a9.126 9.126 0 0 0-1.887.154l-.266-.995-1.326.355.263.984a8.998 8.998 0 0 0-2.877 1.67l-.724-.724-.972.97.726.726a8.956 8.956 0 0 0-1.677 2.875l-.975-.261-.355 1.329.986.264a8.979 8.979 0 0 0-.152 1.887c-1.977-.156-3.913-.95-5.421-2.458-1.509-1.51-2.304-3.447-2.459-5.426m2.459-6.78c1.504-1.505 3.433-2.3 5.404-2.457a7.632 7.632 0 0 1-.109 1.529l-.915-.245-.355 1.329.921.246c-.3.818-.742 1.58-1.312 2.263l-.67-.67-.972.97.671.672a7.629 7.629 0 0 1-2.261 1.313l-.247-.923-1.327.356.246.916a7.647 7.647 0 0 1-1.531.109c.158-1.972.952-3.903 2.457-5.408m13.171-.971c-3.901-3.902-10.243-3.902-14.143 0A9.935 9.935 0 0 0 0 10a9.937 9.937 0 0 0 2.929 7.074A9.966 9.966 0 0 0 10 20a9.968 9.968 0 0 0 7.072-2.925C18.96 15.185 20 12.674 20 10s-1.04-5.185-2.928-7.074"/></symbol><symbol id="pesapallo-bat" viewBox="0 0 20 20" fill="currentColor"><path d="m16.932 0-8.83 8.814-3.159 5.258L1.54 17.52l-.564-.564-.976.975L2.069 20l.975-.976-.529-.529 3.403-3.448 5.258-3.159L20 3.059V1.083L18.914 0h-1.982zM9.196 9.669l8.303-8.302.839.007.281.282.004.833-8.303 8.304-2.814 1.691 1.69-2.815z"/></symbol><symbol id="baseball" viewBox="0 0 20 20" fill="currentColor"><path d="M16.1 16.104c-1.504 1.505-3.434 2.298-5.404 2.456a7.622 7.622 0 0 1 .109-1.528l.915.245.355-1.33-.92-.245a7.585 7.585 0 0 1 1.311-2.262l.67.669.971-.971-.671-.671a7.645 7.645 0 0 1 2.26-1.317l.248.927 1.327-.355-.246-.921a7.445 7.445 0 0 1 1.532-.104c-.159 1.97-.953 3.902-2.457 5.407M1.442 10.678c.08.002.16.014.24.014.559 0 1.109-.061 1.65-.161l.264.984 1.326-.355-.27-1.008a8.936 8.936 0 0 0 2.863-1.666l.744.744.972-.971-.725-.724a8.96 8.96 0 0 0 1.677-2.876l.975.26.355-1.328-.986-.264a8.984 8.984 0 0 0 .152-1.887c1.977.154 3.912.948 5.421 2.458 1.51 1.51 2.305 3.45 2.458 5.43a9.126 9.126 0 0 0-1.887.154l-.266-.995-1.326.355.263.984a8.998 8.998 0 0 0-2.877 1.67l-.724-.724-.972.97.726.726a8.956 8.956 0 0 0-1.677 2.875l-.975-.261-.355 1.329.986.264a8.979 8.979 0 0 0-.152 1.887c-1.977-.156-3.913-.95-5.421-2.458-1.509-1.51-2.304-3.447-2.459-5.426m2.459-6.78c1.504-1.505 3.433-2.3 5.404-2.457a7.632 7.632 0 0 1-.109 1.529l-.915-.245-.355 1.329.921.246c-.3.818-.742 1.58-1.312 2.263l-.67-.67-.972.97.671.672a7.629 7.629 0 0 1-2.261 1.313l-.247-.923-1.327.356.246.916a7.647 7.647 0 0 1-1.531.109c.158-1.972.952-3.903 2.457-5.408m13.171-.971c-3.901-3.902-10.243-3.902-14.143 0A9.935 9.935 0 0 0 0 10a9.937 9.937 0 0 0 2.929 7.074A9.966 9.966 0 0 0 10 20a9.968 9.968 0 0 0 7.072-2.925C18.96 15.185 20 12.674 20 10s-1.04-5.185-2.928-7.074"/></symbol><symbol id="baseball-bat" viewBox="0 0 20 20" fill="currentColor"><path d="m16.932 0-8.83 8.814-3.159 5.258L1.54 17.52l-.564-.564-.976.975L2.069 20l.975-.976-.529-.529 3.403-3.448 5.258-3.159L20 3.059V1.083L18.914 0h-1.982zM9.196 9.669l8.303-8.302.839.007.281.282.004.833-8.303 8.304-2.814 1.691 1.69-2.815z"/></symbol><symbol id="tennis" viewBox="0 0 20 20" fill="currentColor"><path d="M10 18.626c-1.052 0-2.047-.217-2.98-.562-1.053-.511-1.755-1.557-1.831-2.796-.083-1.376.574-2.601 1.756-3.275 1.348-.768 3.135-.63 5.608-.434l1.154.088c2.079.136 3.875-.689 4.808-2.233.019-.031.023-.067.041-.099.018.231.069.451.069.686 0 4.755-3.869 8.625-8.625 8.625m-8.626-8.625c0-.756.128-1.477.311-2.175.448.265 1.035.504 1.729.504.399 0 .829-.078 1.282-.275 2.381-1.029 3.615-4.628 4.122-6.562.39-.054.777-.119 1.182-.119 2.998 0 5.638 1.541 7.185 3.869.71 1.183.772 2.441.154 3.462-.661 1.092-1.981 1.694-3.534 1.57l-1.145-.086c-2.719-.214-4.681-.368-6.396.613-1.621.925-2.558 2.666-2.445 4.549.017.281.097.541.159.806a8.583 8.583 0 0 1-2.604-6.156m5.913-8.147c-.658 2.161-1.74 4.337-3.135 4.941-.868.374-1.609-.008-2.013-.308a8.624 8.624 0 0 1 5.148-4.633m11.054 2.644c-.007-.011-.009-.022-.015-.033l-.004.003C16.528 1.777 13.469 0 10 0 4.485 0 0 4.486 0 10.001c0 4.31 2.745 7.979 6.575 9.382.02.009.034.024.054.032l.004-.011A9.922 9.922 0 0 0 10 20c5.513 0 10-4.485 10-9.999a9.935 9.935 0 0 0-1.659-5.503"/></symbol><symbol id="darts" viewBox="0 0 20 20" fill="currentColor"><path d="m15.173 0-4.138 4.138v3.448L8.963 9.658H7.301L3.45 13.51v1.661L0 18.62V20h1.379l3.449-3.45H6.49l3.852-3.851-.001-1.661 2.074-2.073h3.447L20 4.828V3.447h-3.448L16.543 0h-1.37zm-2.758 4.828 2.758-2.76v2.76h2.758l-2.758 2.758h-2.758V4.828zM4.822 15.169l.002-1.088 3.046-3.05h1.092l.006.007v1.092l-3.046 3.047H4.829l-.007-.008z"/></symbol><symbol id="volleyball" viewBox="0 0 20 20" fill="currentColor"><path d="M16.096 16.096a8.67 8.67 0 0 1-2.088 1.541 13.07 13.07 0 0 1-6.134-4.258 8.893 8.893 0 0 1 2.076-2.408 10.274 10.274 0 0 0 7.218 3.823 8.706 8.706 0 0 1-1.072 1.302m-9.45 1.848a8.935 8.935 0 0 1 .575-3.198 14.415 14.415 0 0 0 4.87 3.621A8.706 8.706 0 0 1 10 18.62a8.542 8.542 0 0 1-3.354-.676m-3.921-3.318a8.257 8.257 0 0 1-.145-.235 14.428 14.428 0 0 1 2.466-4.973 13.5 13.5 0 0 1 4.157-3.589 8.946 8.946 0 0 1 .25 3.783 10.278 10.278 0 0 0-4.164 7.609 8.657 8.657 0 0 1-2.564-2.595m1.18-10.721a8.594 8.594 0 0 1 2.993-1.954 9.01 9.01 0 0 1 1.815 2.575 14.863 14.863 0 0 0-4.761 4.051 15.664 15.664 0 0 0-2.201 3.93A8.621 8.621 0 0 1 1.38 10c0-2.302.897-4.467 2.525-6.095m7.825-2.353c1.07 1.606 1.842 3.406 2.236 5.22a13.37 13.37 0 0 1 .019 5.729 8.901 8.901 0 0 1-3.171-2.668 10.285 10.285 0 0 0-2.423-8.304 8.678 8.678 0 0 1 3.339.023M18.621 10a8.606 8.606 0 0 1-.714 3.447 8.95 8.95 0 0 1-2.627-.419c.503-2.14.514-4.343.034-6.549a16.594 16.594 0 0 0-1.576-4.252c.863.416 1.66.979 2.358 1.678A8.564 8.564 0 0 1 18.621 10m-1.549-7.071A9.935 9.935 0 0 0 10 0a9.934 9.934 0 0 0-7.071 2.929A9.936 9.936 0 0 0 0 10c0 1.909.54 3.765 1.561 5.367a10.032 10.032 0 0 0 4.054 3.623A9.912 9.912 0 0 0 10 20a9.935 9.935 0 0 0 7.072-2.929A9.937 9.937 0 0 0 20 10a9.935 9.935 0 0 0-2.928-7.071"/></symbol><symbol id="beach-volleyball" viewBox="0 0 20 20" fill="currentColor"><path d="M16.096 16.096a8.67 8.67 0 0 1-2.088 1.541 13.07 13.07 0 0 1-6.134-4.258 8.893 8.893 0 0 1 2.076-2.408 10.274 10.274 0 0 0 7.218 3.823 8.706 8.706 0 0 1-1.072 1.302m-9.45 1.848a8.935 8.935 0 0 1 .575-3.198 14.415 14.415 0 0 0 4.87 3.621A8.706 8.706 0 0 1 10 18.62a8.542 8.542 0 0 1-3.354-.676m-3.921-3.318a8.257 8.257 0 0 1-.145-.235 14.428 14.428 0 0 1 2.466-4.973 13.5 13.5 0 0 1 4.157-3.589 8.946 8.946 0 0 1 .25 3.783 10.278 10.278 0 0 0-4.164 7.609 8.657 8.657 0 0 1-2.564-2.595m1.18-10.721a8.594 8.594 0 0 1 2.993-1.954 9.01 9.01 0 0 1 1.815 2.575 14.863 14.863 0 0 0-4.761 4.051 15.664 15.664 0 0 0-2.201 3.93A8.621 8.621 0 0 1 1.38 10c0-2.302.897-4.467 2.525-6.095m7.825-2.353c1.07 1.606 1.842 3.406 2.236 5.22a13.37 13.37 0 0 1 .019 5.729 8.901 8.901 0 0 1-3.171-2.668 10.285 10.285 0 0 0-2.423-8.304 8.678 8.678 0 0 1 3.339.023M18.621 10a8.606 8.606 0 0 1-.714 3.447 8.95 8.95 0 0 1-2.627-.419c.503-2.14.514-4.343.034-6.549a16.594 16.594 0 0 0-1.576-4.252c.863.416 1.66.979 2.358 1.678A8.564 8.564 0 0 1 18.621 10m-1.549-7.071A9.935 9.935 0 0 0 10 0a9.934 9.934 0 0 0-7.071 2.929A9.936 9.936 0 0 0 0 10c0 1.909.54 3.765 1.561 5.367a10.032 10.032 0 0 0 4.054 3.623A9.912 9.912 0 0 0 10 20a9.935 9.935 0 0 0 7.072-2.929A9.937 9.937 0 0 0 20 10a9.935 9.935 0 0 0-2.928-7.071"/></symbol><symbol id="badminton" viewBox="0 0 20 20" fill="currentColor"><mask id="z19frrtphb"><use xlink:href="#gns6mbar6a"/></mask><path d="m18.605 11.032-.001 1.895-1.019 1.636-9.875 1.434-.399-.403 7.441-4.562h3.853zM6.351 14.61l-.781-.788 4.591-7.695 3.624-.572.749.756-.566 3.665-7.617 4.634zm-1.876 3.47a1.685 1.685 0 0 1-2.407.001 1.737 1.737 0 0 1 0-2.438l1.686-1.702 2.411 2.434-1.69 1.706zm1.06-15.59 1.62-1.156 1.837-.001v4.023l-4.482 7.51-.396-.4L5.535 2.49zm10.416 3.369-1.747-1.745-3.878.604V0L6.667.003 4.169 1.665 2.527 13.07.906 14.689a3.1 3.1 0 0 0 0 4.38 3.153 3.153 0 0 0 2.214.932c.83 0 1.592-.346 2.178-.932l1.529-1.527 11.577-1.663L20 13.399v-3.74h-4.653l.604-3.8z" mask="url(#z19frrtphb)"/></symbol><symbol id="american-football" viewBox="0 0 20 20" fill="currentColor"><path d="M14.591.003c2.568-.067 4.451.954 4.451.954s1.021 1.884.955 4.451c-.038 1.49-.387 2.995-1.039 4.472-.803 1.821-2.07 3.604-3.765 5.3l-.013.012c-1.695 1.695-3.478 2.962-5.299 3.765C8.404 19.608 6.8 20 5.138 20c-2.412 0-4.18-.958-4.18-.958s-1.02-1.884-.955-4.45c.038-1.492.388-2.996 1.039-4.473.803-1.82 2.07-3.604 3.765-5.3l.013-.01c1.695-1.697 3.478-2.964 5.299-3.767 1.477-.65 2.982-1 4.472-1.039zm-12.6 11.458a10.14 10.14 0 0 0-.608 3.165c-.045 1.738.406 2.954.601 3.393.601.27 1.884.651 3.471.596a10.161 10.161 0 0 0 3.083-.607zm8.18-8.92c-1.491.737-2.961 1.825-4.375 3.24l-.012.012C4.392 7.184 3.316 8.63 2.578 10.096l7.325 7.325c1.466-.739 2.911-1.815 4.302-3.205l.012-.013c1.415-1.414 2.503-2.885 3.242-4.376zm1.843 4.47.976.974-.863.863.655.654-.976.975-.654-.654-1.275 1.275.654.654-.976.976-.654-.655-.862.863-.976-.975.863-.863-.632-.632.976-.975.631.631 1.275-1.274-.632-.632.976-.976.632.632.862-.862zm2.825-5.632-.294.005a10.12 10.12 0 0 0-3.001.578l6.494 6.494c.349-1 .543-2.007.577-3 .055-1.59-.326-2.872-.596-3.476-.601-.269-1.885-.65-3.474-.596z"/></symbol><symbol id="table-tennis" viewBox="0 0 20 20" fill="currentColor"><path d="M14.726 15.008 4.994 5.274C6.208 2.968 8.6 1.373 11.382 1.373c3.995 0 7.244 3.251 7.244 7.245 0 2.784-1.593 5.176-3.9 6.39zM4.137 8.618c0-.682.126-1.331.303-1.957l8.899 8.901c-.627.177-1.274.302-1.957.302-3.995 0-7.245-3.25-7.245-7.246zM.975 20l4.848-4.85c1.505 1.284 3.431 2.088 5.559 2.088 4.752 0 8.618-3.867 8.618-8.62C20 3.865 16.134 0 11.382 0 6.63 0 2.764 3.865 2.764 8.618c0 2.129.805 4.055 2.088 5.561L0 19.032.975 20z"/></symbol><symbol id="cricket" viewBox="0 0 20 20" fill="currentColor"><path d="M10 0c5.514 0 10 4.485 10 9.999C20 15.514 15.514 20 10 20 4.487 20 0 15.514 0 9.999 0 4.485 4.487 0 10 0zm6.537 4.436L4.435 16.534c.266.228.523.461.815.655l.847-.847.976.975-.558.559a8.547 8.547 0 0 0 3.485.75c4.757 0 8.626-3.871 8.626-8.627a8.54 8.54 0 0 0-.75-3.484l-.557.557-.976-.975.846-.847c-.193-.291-.426-.55-.652-.814zm-7.999 9.465.976.976-.976.976-.976-.976.976-.976zM10 1.373c-4.756 0-8.626 3.869-8.626 8.626a8.54 8.54 0 0 0 .75 3.484l.558-.556.976.975-.847.847c.193.291.427.549.653.814L15.566 3.464c-.266-.227-.524-.46-.816-.653l-.847.846-.976-.975.558-.559A8.544 8.544 0 0 0 10 1.373zm1.708 9.358.976.976-.976.976-.976-.976.976-.976zm-6.586-.245.976.976-.976.976-.976-.976.976-.976zM14.88 7.56l.976.976-.976.976-.976-.976.976-.976zm-6.587-.244.976.976-.976.976-.976-.976.976-.976zm3.171-3.17.976.975-.976.976-.976-.976.976-.976z"/></symbol><symbol id="cricket-bat" viewBox="0 0 20 20" fill="currentColor"><path d="m19.021 0-5.224 5.246-.405-.417h-2.133L0 16.101V20h3.899L15.173 8.74V6.608l-.397-.383L20 1.001 19.021 0zM1.378 16.671 11.83 6.219h.992l.958.959v.992L3.329 18.622H1.378v-1.951z"/></symbol><symbol id="penaltyMissed" viewBox="0 0 20 20"><path fill="#DC0000" d="M9.437 1.2 0 17.543l.563.977h18.872l.564-.977L10.565 1.2H9.437zm-.428 12.091h1.961v-7.19H9.01v7.19zm0 3.268h1.961v-1.962H9.01v1.962z"/><path fill="#FFF" d="M10.971 14.397v1.962H9.01v-1.962h1.961zm0-8.495v7.19H9.01v-7.19h1.961z"/></symbol><symbol id="var" viewBox="0 0 20 20" fill="currentColor"><path d="M17.528 3.4 20 5.872v8.159l-2.469 2.471H2.47L0 14.031V5.872L2.473 3.4h15.055Zm-.569 1.374H3.042L1.374 6.441v7.021l1.666 1.665h13.921l1.665-1.665V6.441l-1.667-1.667ZM3.25 7.099c.016 0 .032.014.041.031l1.045 4.562c0 .022.017.031.032.031h.52c.016 0 .031-.009.04-.031l1.03-4.562c.008-.017.024-.031.04-.031h1.039l-1.311 5.566c-.008.017-.016.025-.04.025H3.57c-.016 0-.032-.017-.04-.033L2.22 7.099Zm7.757 0c.104 0 .2.039.27.11l.736.745a.377.377 0 0 1 .113.27v4.425c0 .024-.018.04-.034.04h-.886c-.024 0-.04-.016-.04-.04v-1.693a.19.19 0 0 0-.19-.191h-2.51a.19.19 0 0 0-.191.19v1.694c0 .024-.017.04-.04.04h-.886c-.025 0-.04-.016-.04-.04V8.224c0-.102.04-.198.11-.27l.745-.744a.378.378 0 0 1 .27-.111Zm5.622 0a.38.38 0 0 1 .272.11l.72.744a.36.36 0 0 1 .12.27v1.03c0 .106-.04.2-.12.274l-.72.734a.374.374 0 0 1-.272.112h-.23l1.333 2.317h-1.11l-1.334-2.317h-1.23a.192.192 0 0 0-.176.192v2.084c0 .024-.016.04-.04.04h-.886c-.024 0-.04-.016-.04-.04V7.138c0-.024.016-.04.04-.04Zm-5.654.966H8.468a.189.189 0 0 0-.193.19v1.35c0 .105.089.193.193.193h2.508a.194.194 0 0 0 .191-.192v-1.35a.188.188 0 0 0-.19-.191Zm5.608 0h-2.509a.184.184 0 0 0-.192.19v.969c0 .103.088.19.192.19h2.51a.193.193 0 0 0 .19-.19v-.968a.188.188 0 0 0-.19-.191Z"/></symbol><symbol id="floorballBall" viewBox="0 0 20 20" fill="currentColor"><path d="M2.893 2.925c3.91-3.901 10.265-3.898 14.172 0A9.93 9.93 0 0 1 20 9.999a9.922 9.922 0 0 1-2.93 7.064c-.002.003-.003.006-.006.008-.003.004-.007.005-.01.008a9.959 9.959 0 0 1-7.075 2.92 9.959 9.959 0 0 1-7.068-2.914c-.006-.005-.012-.008-.018-.014a2.676 2.676 0 0 1-.355-.436 9.95 9.95 0 0 1 .004-13.28c.083-.125.183-.24.287-.352.024-.024.039-.053.064-.078zm9.089-1.291c-.02.02-.034.046-.054.067a2.748 2.748 0 0 1-1.95.804 2.76 2.76 0 0 1-1.952-.806c-.02-.02-.034-.044-.053-.065a8.598 8.598 0 0 0-1.984.755 2.6 2.6 0 0 1 .808.537c.522.52.809 1.212.809 1.948 0 .738-.287 1.429-.81 1.949-.52.52-1.214.807-1.951.807a2.745 2.745 0 0 1-1.953-.807 2.734 2.734 0 0 1-.544-.79A8.474 8.474 0 0 0 1.6 8.001c.02.02.045.034.065.053a2.757 2.757 0 0 1-.002 3.895c-.02.018-.043.03-.062.049.162.679.419 1.334.747 1.965.135-.288.312-.557.544-.79a2.773 2.773 0 0 1 3.905 0c.522.52.809 1.213.809 1.95a2.726 2.726 0 0 1-1.607 2.493 8.52 8.52 0 0 0 1.973.752c.02-.022.036-.05.057-.071a2.74 2.74 0 0 1 1.947-.806c.739 0 1.432.289 1.954.809.02.02.035.046.055.068a8.516 8.516 0 0 0 1.974-.752 2.7 2.7 0 0 1-.8-.545 2.735 2.735 0 0 1-.81-1.948c0-.737.289-1.43.81-1.95a2.766 2.766 0 0 1 3.904 0c.235.235.413.506.548.796a8.497 8.497 0 0 0 .752-1.964l-.07-.054a2.754 2.754 0 0 1-.002-3.9c.022-.021.05-.037.072-.058a8.447 8.447 0 0 0-.751-1.966c-.135.29-.314.562-.548.796a2.76 2.76 0 0 1-1.952.806 2.76 2.76 0 0 1-2.763-2.756c0-.735.289-1.427.81-1.947.237-.236.51-.411.797-.544a8.501 8.501 0 0 0-1.974-.748zm3.13 12.108a1.379 1.379 0 0 0-1.385 1.381c0 .369.144.715.405.978a1.391 1.391 0 0 0 1.949.006l.01-.008.005-.007c.533-.54.532-1.41-.005-1.947a1.381 1.381 0 0 0-.98-.403zm-10.267 0c-.354 0-.71.134-.98.403a1.38 1.38 0 0 0-.008 1.94l.01.014.013.01c.542.525 1.41.525 1.943-.008a1.383 1.383 0 0 0-.978-2.359zM8.027 8.05a2.765 2.765 0 0 1 3.903 0c.522.52.809 1.212.809 1.949 0 .737-.287 1.428-.808 1.948a2.76 2.76 0 0 1-1.952.806 2.76 2.76 0 0 1-2.763-2.754c0-.737.289-1.43.81-1.95zm1.952.568a1.384 1.384 0 0 0-1.386 1.381c0 .369.145.715.406.978.54.537 1.417.537 1.959 0a1.381 1.381 0 0 0-.98-2.359zm5.133-5.124a1.378 1.378 0 0 0-1.385 1.38c0 .37.144.716.405.979.54.537 1.417.537 1.959 0a1.381 1.381 0 0 0-.98-2.359zm-10.267 0a1.383 1.383 0 0 0-.98 2.359c.54.537 1.418.537 1.958 0a1.383 1.383 0 0 0-.978-2.359z"/></symbol><symbol id="video" fill="currentColor" viewBox="0 0 20 20"><path fill-rule="evenodd" d="M17.5 2.8 20 5.2v9.5l-2.5 2.5h-15L0 14.8V5.2l2.5-2.5h15zM17 4.1H3L1.4 5.8v8.4L3 15.9h14l1.7-1.7V5.8c-.1 0-1.7-1.7-1.7-1.7zM7.6 6.2l5.9 3.8-5.9 3.8V6.2z"/></symbol><symbol id="assist" viewBox="0 0 20 20" fill="currentColor"><path d="M13.66 9.28c0 .26-.22.48-.48.48H6.9c-.26 0-.48-.22-.48-.48V5.9c0-.28.22-.48.48-.48h6.28c.26 0 .48.2.48.48v3.38zm.281-6.001a.957.957 0 0 0-.68-.279H6.818c-.26 0-.5.1-.68.279L4.28 5.139a.947.947 0 0 0-.28.68v11.082c0 .06.04.099.1.099h2.22c.06 0 .1-.04.1-.1v-4.24c0-.278.22-.48.48-.48h6.28c.26 0 .48.202.48.48v4.24c0 .06.04.1.101.1h2.22c.04 0 .08-.04.08-.1V5.82c0-.26-.1-.5-.282-.68l-1.838-1.86z"/></symbol><symbol id="shield" viewBox="0 0 24 24" fill="currentColor"><path d="m18.993 0 3.558 3.536v11.95L14.018 24H9.565L1 15.487V3.537L4.568 0h14.425zm-.34.82H4.907L1.821 3.88v11.267l8.083 8.034h3.775l8.051-8.034V3.88L18.654.82zm-.68 1.659 2.09 2.082v10.216l-6.759 6.743h-3.032l-6.784-6.743V4.56l2.104-2.082h12.38zm-.34.82H5.93L4.309 4.903v9.533L10.61 20.7h2.355l6.277-6.263V4.903l-1.61-1.604zm-.051 5.146v1.162l-7.9 7.897-.58-.581 8.48-8.478zm-.551-3.456.58.581L7.68 15.5l-.581-.58 9.932-9.93zm-2.84-.042-8.218 8.216v-1.16l7.056-7.056h1.162z"/></symbol><symbol id="americanFootballBall" viewBox="0 0 20 20" fill="currentColor"><mask id="kqjs8cscnb" fill="#fff"><use xlink:href="#4fmjjdbara"/></mask><path d="M17.707 9.61c-.713 1.615-1.845 3.205-3.373 4.735-1.52 1.518-3.11 2.65-4.724 3.36-1.375.607-2.766.913-4.137.913-.337 0-.65-.031-.955-.07 2.098-.823 5.207-2.42 8.292-5.41l.002.003.165-.165v-.002c3.161-3.264 4.77-6.56 5.547-8.651.062.429.104.886.092 1.384-.034 1.298-.34 2.61-.909 3.903M2.113 10.85l1.081 1.08.982-.981L2.738 9.51c.221-.411.47-.821.745-1.227l1.68 1.679.981-.982-1.822-1.822c.284-.352.592-.7.917-1.045L7.125 8l.982-.982-1.883-1.883c.35-.322.7-.626 1.054-.908l1.81 1.81.982-.982-1.657-1.656a13.87 13.87 0 0 1 1.24-.733l1.403 1.403.982-.981-1.034-1.035c1.093-.41 2.196-.642 3.286-.67a8.253 8.253 0 0 1 3.492.668c-.224.938-1.504 5.553-5.85 10.014-4.199 4.107-8.543 5.489-9.834 5.829a8.57 8.57 0 0 1-.714-3.603c.03-1.143.282-2.298.73-3.441m16.911-9.597-.098-.181-.18-.1c-.079-.041-1.91-.994-4.492-.971C12.78.04 11.29.385 9.832 1.028c-1.77.779-3.502 2.008-5.155 3.66-1.639 1.64-2.866 3.37-3.649 5.143C.385 11.289.04 12.778.003 14.255c-.066 2.546.93 4.413.971 4.49l.098.18.18.099c.028.015.283.149.708.315l.002.008.013-.003c.74.286 1.991.657 3.498.657 1.565 0 3.143-.348 4.693-1.031 1.772-.78 3.503-2.007 5.156-3.661 1.64-1.638 2.866-3.368 3.65-5.142.642-1.457.987-2.947 1.025-4.424.064-2.547-.93-4.412-.972-4.49" mask="url(#kqjs8cscnb)"/></symbol><symbol id="emptyTeamLogo" viewBox="0 0 48 48" fill="currentColor"><path d="m37.986 0 7.116 7.073v23.9L28.036 48H19.13L2 30.974V7.073L9.135 0h28.85zm-.678 1.64H9.812l-6.17 6.118v22.534L19.809 46.36h7.55L43.46 30.293V7.758L37.308 1.64zm-1.364 3.317 4.182 4.166v20.43L26.608 43.042h-6.064L6.975 29.554V9.12l4.209-4.164h24.76zM35.265 6.6H11.86L8.618 9.807v19.065L21.22 41.398h4.71l12.554-12.526V9.805L35.265 6.6zm-.101 10.29v2.325L19.366 35.008l-1.162-1.163 16.96-16.956zM34.06 9.98l1.162 1.162L15.359 31l-1.161-1.16L34.06 9.978zm-5.68-.084-16.434 16.43v-2.322l14.112-14.11h2.325z"/></symbol><symbol id="time" viewBox="0 0 20 20" fill="currentColor"><path d="M12.88 0v1.374h-2.418v2.145a8.167 8.167 0 0 1 3.626 1.176l1.533-2.016 1.094.83-1.525 2.008c1.738 1.518 2.861 3.724 2.861 6.208 0 4.562-3.713 8.275-8.276 8.275S1.5 16.287 1.5 11.725c0-4.328 3.351-7.851 7.588-8.206V1.374H6.671V0h6.209ZM9.775 4.823c-3.805 0-6.901 3.097-6.901 6.902a6.91 6.91 0 0 0 6.901 6.901 6.908 6.908 0 0 0 6.901-6.901c0-3.805-3.095-6.902-6.901-6.902Zm.684 1.384v5.517H9.095V6.207h1.366Z"/></symbol><symbol id="attendance" viewBox="0 0 16 16" fill="currentColor"><path d="M14.906 14.907h-1.67v-1.06l-.96-.97-2.271-.567c.942-1.143 1.333-3.094.83-4.523-.217-.616-.583-1.1-1.065-1.431l-.019-.06c-.22-.885-.11-1.75.289-2.26.28-.358.709-.542 1.273-.542.777 0 1.292.346 1.532 1.028.366 1.04-.022 2.615-.8 3.24l-.204.164v.999l2.718.678.347.352v4.952zm-3.593 0H3.858v-.61l.428-.434 3.044-.759v-1.04l-.204-.164c-.901-.723-1.352-2.546-.93-3.75.284-.803.891-1.21 1.805-1.21.913 0 1.52.406 1.803 1.21.423 1.204-.029 3.026-.929 3.75l-.204.165v1.039l3.043.76.428.433v.61h-.83zm-10.22 0V9.955l.348-.352 2.718-.678v-.999l-.203-.164c-.778-.625-1.166-2.2-.8-3.24.24-.682.755-1.028 1.532-1.028.563 0 .992.184 1.273.543.397.509.509 1.374.289 2.257l-.019.063c-.482.33-.849.814-1.065 1.431-.504 1.429-.112 3.38.83 4.522l-2.271.567-.96.97v1.06H1.094zM6.966 1.5c.234-.27.583-.407 1.036-.407.456 0 .807.14 1.042.416.307.36.427.967.335 1.632a2.8 2.8 0 0 0-.2.222c-.498.638-.705 1.553-.601 2.533a3.578 3.578 0 0 0-.576-.05c-.201 0-.392.02-.578.05.104-.98-.103-1.895-.6-2.533a3.154 3.154 0 0 0-.205-.226c-.09-.67.037-1.28.347-1.637zm8.156 7.118-1.923-.481c.812-1.038 1.126-2.707.678-3.979-.393-1.116-1.327-1.756-2.563-1.756-.31 0-.581.04-.823.105-.037-.669-.241-1.269-.614-1.706C9.43.277 8.782 0 8.001 0c-.773 0-1.417.27-1.862.784-.38.438-.594 1.043-.633 1.722a3.15 3.15 0 0 0-.818-.104c-1.236 0-2.17.64-2.564 1.756-.448 1.272-.134 2.941.68 3.979l-1.925.48L0 9.505V16h16V9.504l-.88-.886z"/></symbol><symbol id="liveStreamLogo" viewBox="0 0 38 14"><path fill="var(--color-primary-2)" d="M0 0h38v14H0z"/><path fill="#FFF" d="M5.91 10.105c.354 0 .65-.045.885-.136.236-.091.447-.222.635-.39.166-.155.296-.342.388-.563.093-.222.139-.446.139-.672 0-.362-.092-.667-.277-.914-.185-.248-.478-.433-.88-.555a10.012 10.012 0 0 0-.59-.154 20.86 20.86 0 0 1-.6-.15c-.248-.068-.437-.175-.567-.321-.13-.146-.195-.342-.195-.59a.79.79 0 0 1 .332-.662c.221-.168.511-.252.87-.252.318 0 .622.063.91.19.29.126.527.274.712.443h.058v-.926a3.68 3.68 0 0 0-.806-.277A4.216 4.216 0 0 0 6 4.078c-.57 0-1.04.16-1.406.479a1.509 1.509 0 0 0-.551 1.185c0 .227.033.427.1.6.066.173.16.323.279.451.122.13.263.236.422.316.159.081.338.148.539.2.224.057.41.102.558.136.149.034.313.077.493.13.25.07.432.178.546.323.115.146.172.335.172.567a.863.863 0 0 1-.328.705c-.219.178-.541.268-.969.268-.299 0-.61-.066-.933-.198a2.795 2.795 0 0 1-.867-.556H4v.968c.26.128.538.235.834.323.296.087.654.13 1.076.13zM11.08 10V4.871h1.953v-.687h-4.68v.687h1.953V10h.774zm3.512 0V7.687h.883L17.318 10h1.004l-2.07-2.531c.372-.138.666-.35.882-.637.217-.286.325-.643.325-1.07 0-.305-.06-.56-.178-.766a1.456 1.456 0 0 0-.483-.504 1.65 1.65 0 0 0-.642-.254 5.442 5.442 0 0 0-.838-.054h-1.5V10h.773zm.68-2.957h-.68V4.848h.766c.216 0 .397.015.543.045.146.03.273.081.383.154.125.083.217.19.277.322.06.132.09.282.09.451 0 .203-.027.38-.08.532-.053.15-.136.28-.248.39a.91.91 0 0 1-.453.242 2.73 2.73 0 0 1-.598.059zM22.62 10v-.688h-2.864v-2.16h2.668v-.687h-2.668V4.87h2.864v-.687h-3.637V10h3.637zm1.203 0 .528-1.625h2.222L27.101 10h.816l-1.96-5.816h-.954L23.043 10h.78zm2.536-2.285h-1.793l.894-2.742.899 2.742zM29.39 10V4.988l1.504 3.41h.468l1.516-3.41V10h.773V4.184h-1.074l-1.402 3.238-1.453-3.238h-1.055V10h.723z"/><path fill="#FFF" d="M5.91 10.105c.354 0 .65-.045.885-.136.236-.091.447-.222.635-.39.166-.155.296-.342.388-.563.093-.222.139-.446.139-.672 0-.362-.092-.667-.277-.914-.185-.248-.478-.433-.88-.555a10.012 10.012 0 0 0-.59-.154 20.86 20.86 0 0 1-.6-.15c-.248-.068-.437-.175-.567-.321-.13-.146-.195-.342-.195-.59a.79.79 0 0 1 .332-.662c.221-.168.511-.252.87-.252.318 0 .622.063.91.19.29.126.527.274.712.443h.058v-.926a3.68 3.68 0 0 0-.806-.277A4.216 4.216 0 0 0 6 4.078c-.57 0-1.04.16-1.406.479a1.509 1.509 0 0 0-.551 1.185c0 .227.033.427.1.6.066.173.16.323.279.451.122.13.263.236.422.316.159.081.338.148.539.2.224.057.41.102.558.136.149.034.313.077.493.13.25.07.432.178.546.323.115.146.172.335.172.567a.863.863 0 0 1-.328.705c-.219.178-.541.268-.969.268-.299 0-.61-.066-.933-.198a2.795 2.795 0 0 1-.867-.556H4v.968c.26.128.538.235.834.323.296.087.654.13 1.076.13zM11.08 10V4.871h1.953v-.687h-4.68v.687h1.953V10h.774zm3.512 0V7.687h.883L17.318 10h1.004l-2.07-2.531c.372-.138.666-.35.882-.637.217-.286.325-.643.325-1.07 0-.305-.06-.56-.178-.766a1.456 1.456 0 0 0-.483-.504 1.65 1.65 0 0 0-.642-.254 5.442 5.442 0 0 0-.838-.054h-1.5V10h.773zm.68-2.957h-.68V4.848h.766c.216 0 .397.015.543.045.146.03.273.081.383.154.125.083.217.19.277.322.06.132.09.282.09.451 0 .203-.027.38-.08.532-.053.15-.136.28-.248.39a.91.91 0 0 1-.453.242 2.73 2.73 0 0 1-.598.059zM22.62 10v-.688h-2.864v-2.16h2.668v-.687h-2.668V4.87h2.864v-.687h-3.637V10h3.637zm1.203 0 .528-1.625h2.222L27.101 10h.816l-1.96-5.816h-.954L23.043 10h.78zm2.536-2.285h-1.793l.894-2.742.899 2.742zM29.39 10V4.988l1.504 3.41h.468l1.516-3.41V10h.773V4.184h-1.074l-1.402 3.238-1.453-3.238h-1.055V10h.723z"/></symbol><symbol id="venue" viewBox="0 0 16 16" fill="currentColor"><path d="M1.977 1.92 0 3.896v8.24l1.982 1.92h12.043L16 12.078V3.896L14.024 1.92H1.977zm6.57 1.093h4.113L11.326 4.68H8.547V3.013zm-5.206 0h4.113V4.68H4.675L3.341 3.013zm8.98 2.173 1.522-1.901.792.792-1.901 1.521-.412-.412zM1.367 4.076l.792-.791L3.68 5.186l-.412.412-1.9-1.521zM13.24 9.382V6.594l1.666-1.334v5.454L13.24 9.381zM1.094 5.26l1.667 1.334V9.38l-1.667 1.333V5.26zm2.76 4.157v-2.86l.784-.783h6.724l.784.784v2.859l-.784.785H4.638l-.784-.785zm8.468 1.371.412-.412 1.901 1.52-.793.794-1.52-1.902zM1.344 11.914l1.923-1.538.412.412-1.527 1.91-.808-.784zm7.203-.62h2.779l1.334 1.668H8.547v-1.668zm-3.872 0h2.779v1.668H3.34l1.334-1.668z"/></symbol><svg xmlns="http://www.w3.org/2000/svg" xmlns:xlink="http://www.w3.org/1999/xlink" version="1.1" id="soccerJerseyHome" viewBox="0 0 38 30"><use xlink:href="#soccerJersey" fill="#0f2d37"/></svg><svg xmlns="http://www.w3.org/2000/svg" xmlns:xlink="http://www.w3.org/1999/xlink" version="1.1" id="soccerJerseyHomeDark" viewBox="0 0 38 30"><use xlink:href="#soccerJersey" fill="#eee"/></svg><svg xmlns="http://www.w3.org/2000/svg" xmlns:xlink="http://www.w3.org/1999/xlink" version="1.1" id="soccerJerseyAway" viewBox="0 0 38 30"><use xlink:href="#soccerJersey" fill="#ff0046"/></svg><svg xmlns="http://www.w3.org/2000/svg" xmlns:xlink="http://www.w3.org/1999/xlink" version="1.1" id="soccerJerseyAwayDark" viewBox="0 0 38 30"><use xlink:href="#soccerJersey" fill="#c80037"/></svg><svg xmlns="http://www.w3.org/2000/svg" xmlns:xlink="http://www.w3.org/1999/xlink" version="1.1" id="soccerJerseyGoalkeeper" viewBox="0 0 38 30"><use xlink:href="#soccerJersey" fill="#0067c3"/></svg><svg xmlns="http://www.w3.org/2000/svg" xmlns:xlink="http://www.w3.org/1999/xlink" version="1.1" id="hockeyJerseyHome" viewBox="0 0 38 31"><use xlink:href="#hockeyJersey" fill="#0f2d37"/></svg><svg xmlns="http://www.w3.org/2000/svg" xmlns:xlink="http://www.w3.org/1999/xlink" version="1.1" id="hockeyJerseyHomeDark" viewBox="0 0 38 31"><use xlink:href="#hockeyJersey" fill="#eee"/></svg><svg xmlns="http://www.w3.org/2000/svg" xmlns:xlink="http://www.w3.org/1999/xlink" version="1.1" id="hockeyJerseyAway" viewBox="0 0 38 31"><use xlink:href="#hockeyJersey" fill="#ff0046"/></svg><svg xmlns="http://www.w3.org/2000/svg" xmlns:xlink="http://www.w3.org/1999/xlink" version="1.1" id="hockeyJerseyAwayDark" viewBox="0 0 38 31"><use xlink:href="#hockeyJersey" fill="#c80037"/></svg><svg xmlns="http://www.w3.org/2000/svg" xmlns:xlink="http://www.w3.org/1999/xlink" version="1.1" id="hockeyJerseyGoalkeeper" viewBox="0 0 38 31"><use xlink:href="#hockeyJersey" fill="#0067c3"/></svg><svg xmlns="http://www.w3.org/2000/svg" xmlns:xlink="http://www.w3.org/1999/xlink" version="1.1" id="basketballJerseyHome" viewBox="0 0 22 30"><use xlink:href="#basketballJersey" fill="#0f2d37"/></svg><svg xmlns="http://www.w3.org/2000/svg" xmlns:xlink="http://www.w3.org/1999/xlink" version="1.1" id="basketballJerseyHomeDark" viewBox="0 0 22 30"><use xlink:href="#basketballJersey" fill="#eee"/></svg><svg xmlns="http://www.w3.org/2000/svg" xmlns:xlink="http://www.w3.org/1999/xlink" version="1.1" id="basketballJerseyAway" viewBox="0 0 22 30"><use xlink:href="#basketballJersey" fill="#ff0046"/></svg><svg xmlns="http://www.w3.org/2000/svg" xmlns:xlink="http://www.w3.org/1999/xlink" version="1.1" id="basketballJerseyAwayDark" viewBox="0 0 22 30"><use xlink:href="#basketballJersey" fill="#c80037"/></svg><svg xmlns="http://www.w3.org/2000/svg" xmlns:xlink="http://www.w3.org/1999/xlink" version="1.1" id="soccerFieldView" viewBox="0 0 592 364"><use xlink:href="#soccerField"/></svg><svg xmlns="http://www.w3.org/2000/svg" xmlns:xlink="http://www.w3.org/1999/xlink" version="1.1" id="hockeyFieldView" viewBox="0 0 592 365"><use xlink:href="#hockeyField"/></svg><svg xmlns="http://www.w3.org/2000/svg" xmlns:xlink="http://www.w3.org/1999/xlink" version="1.1" id="basketballFieldView" viewBox="0 0 592 365"><use xlink:href="#basketballField"/></svg><svg xmlns="http://www.w3.org/2000/svg" xmlns:xlink="http://www.w3.org/1999/xlink" version="1.1" id="reportPlaceholderView" viewBox="0 0 40 40"><use xlink:href="#reportPlaceholder"/></svg><svg xmlns="http://www.w3.org/2000/svg" xmlns:xlink="http://www.w3.org/1999/xlink" version="1.1" id="streamIconView" viewBox="0 0 16 16"><use xlink:href="#streamIcon"/></svg><svg xmlns="http://www.w3.org/2000/svg" xmlns:xlink="http://www.w3.org/1999/xlink" version="1.1" id="arrowSlimView" viewBox="0 0 14 14"><use xlink:href="#arrowSlim"/></svg></svg>