<svg xmlns="http://www.w3.org/2000/svg"  viewBox="0 0 20 20" fill="#555e61">
    <path d="m5.5 0v1.4h3.8v-1.4h1.4v1.4h3.8v-1.4h1.4v1.4h1.7l2.4 2.5v13.7l-2.5 2.4h-15l-2.5-2.5v-13.6l2.5-2.5h1.7v-1.4zm13.1 6.9h-17.2v10.1l1.6 1.6h14l1.7-1.7v-10zm-13.1 6.9v2.8h-1.4v-2.8zm3.5 0v2.8h-1.4v-2.8zm3.4 0v2.8h-1.4v-2.8zm-6.9-4.8v2.8h-1.4v-2.8zm3.5 0v2.8h-1.4v-2.8zm3.4 0v2.8h-1.4v-2.8zm3.5 0v2.8h-1.4v-2.8zm-11.8-6.2h-1.1l-1.6 1.6v1.1h17.2v-1.1l-1.6-1.6h-1.1v1.4h-1.4v-1.4h-3.8v1.4h-1.4v-1.4h-3.8v1.4h-1.4z"/>
</svg>