<svg style="width:100%"  xmlns="http://www.w3.org/2000/svg" viewBox="0 0 20 20">
    <path fill="none" stroke="black" stroke-miterlimit="10" d="M17 10.4c0 3.9-3.2 7-7 7s-7-3.2-7-7 3.1-7 7-7 7 3.2 7 7z"/>
    <path fill="none" d="M17 10.4c0 3.9-3.2 7-7 7s-7-3.2-7-7 3.1-7 7-7 7 3.2 7 7z"/>
    <path fill="black" d="m15.2 8.9.8-2.1c-.2-.3-.4-.6-.6-.8-.1.1-.2.1-.3.3l-.9 2.5-1.7.7-2-1.5-.1-2.2 2.1-1.5c.1-.1.2-.2.2-.3-.3-.1-.7-.2-1-.3L9.8 5 8.1 3.7c-.4.1-.7.2-1 .4 0 .1.1.2.2.2l2.1 1.5.1 2.2-1.9 1.3-2-.6-.9-2.3c0-.1-.1-.2-.2-.3l-.6.9.8 2.1L3 10.5c0 .4 0 .7.1 1.1.1 0 .2 0 .3-.1l2.1-1.7 1.8.5.7 2.2L6.8 14l-2.4.1c-.1 0-.1.1-.2.1.2.4.5.7.8 1l1.9-.1.7 1.9c.3.1.6.2 1 .3 0-.1.1-.3 0-.4l-.8-2.4 1.1-1.3h2.3l.8 1.4-1 2.3c-.1.2 0 .3.1.5.3 0 .6-.1.9-.2l.9-2.2 2.3.2c.2-.2.4-.4.5-.7-.1-.1-.2-.2-.4-.2l-2.6-.3-.7-1.4.8-2.3 1.8-.7 2 1.6c.1.1.2.1.3.1h.1c0-.3.1-.6.1-.8v-.1l-1.9-1.5zM11 12.1H8.9l-.7-2L10 8.8l1.7 1.3-.7 2z"/>
</svg>