<svg width="25" height="25" viewBox="0 0 25 25" fill="none" xmlns="http://www.w3.org/2000/svg">
<path fill-rule="evenodd" clip-rule="evenodd" d="M5.46252 0.0299953C5.75919 0.00538376 7.28545 0 12.5041 0H16.5725C19.5046 0.00509438 19.6714 0.0292593 20.2284 0.109922L20.2607 0.114597C21.4659 0.288416 22.4772 0.769109 23.3042 1.55898C23.7675 2.00488 24.0867 2.44096 24.3742 3.02491C24.7245 3.73826 24.8966 4.41315 24.9754 5.41684C24.9923 5.63219 25 9.05934 25 12.4888C25 15.9177 24.9929 19.3512 24.976 19.5665C24.8981 20.5543 24.726 21.2349 24.3867 21.9348C23.7118 23.3269 22.4716 24.3421 20.9738 24.7286C20.4307 24.869 19.9394 24.9349 19.0934 24.9747C18.7916 24.9901 15.6345 24.9939 12.4774 24.9939C9.32026 24.9939 6.16508 24.9843 5.85552 24.9709C5.12489 24.9363 4.55577 24.8632 4.04048 24.7305C2.5523 24.346 1.28907 23.3154 0.62766 21.9425C0.281571 21.2253 0.11814 20.5696 0.031618 19.5275C0.00662269 19.2314 0.00085454 17.7066 0.00085454 12.4921C0.00085454 11.8532 0.000600262 11.2734 0.000369119 10.7464C-3.53378e-05 9.82419 -0.000368958 9.06351 0.00085454 8.43021C0.00576937 5.49483 0.0296406 5.33014 0.110838 4.76996C0.11223 4.76036 0.113638 4.75064 0.115064 4.74079C0.28907 3.53675 0.769749 2.52383 1.56287 1.7005C1.99836 1.24903 2.43963 0.926969 2.99914 0.649128C3.72515 0.287647 4.39157 0.11902 5.46252 0.0299953ZM8.69289 3.32456C9.67732 3.27976 9.99187 3.2688 12.4983 3.2688H12.4954C15.0027 3.2688 15.3161 3.27976 16.3005 3.32456C17.283 3.36955 17.954 3.5251 18.5424 3.75334C19.15 3.98888 19.6633 4.30421 20.1767 4.81759C20.6901 5.33059 21.0054 5.84551 21.2419 6.45253C21.4688 7.03936 21.6245 7.71002 21.6706 8.69256C21.7149 9.67702 21.7264 9.99159 21.7264 12.4981C21.7264 15.0046 21.7149 15.3184 21.6706 16.3029C21.6245 17.2851 21.4688 17.9559 21.2419 18.5429C21.0054 19.1498 20.6901 19.6647 20.1767 20.1777C19.6639 20.6911 19.1498 21.0072 18.543 21.2429C17.9558 21.4711 17.2844 21.6267 16.3018 21.6717C15.3174 21.7165 15.0038 21.7274 12.4972 21.7274C9.99091 21.7274 9.67655 21.7165 8.69212 21.6717C7.7098 21.6267 7.03897 21.4711 6.45177 21.2429C5.84516 21.0072 5.33025 20.6911 4.81746 20.1777C4.30429 19.6647 3.98897 19.1498 3.75305 18.5427C3.52501 17.9559 3.36947 17.2852 3.32428 16.3027C3.27968 15.3182 3.26852 15.0046 3.26852 12.4981C3.26852 9.99159 3.28006 9.67683 3.32409 8.69237C3.36831 7.71021 3.52405 7.03936 3.75286 6.45234C3.98935 5.84551 4.30468 5.33059 4.81804 4.81759C5.33102 4.3044 5.84592 3.98907 6.45293 3.75334C7.03974 3.5251 7.71038 3.36955 8.69289 3.32456ZM12.1907 4.93191C12.0041 4.93182 11.8312 4.93175 11.6704 4.932V4.92969C9.95035 4.93161 9.62041 4.94315 8.76903 4.98161C7.8692 5.02295 7.38064 5.17292 7.05531 5.29982C6.62462 5.46749 6.31699 5.66746 5.99397 5.99049C5.67096 6.31351 5.47061 6.62115 5.30333 7.05186C5.17701 7.37719 5.02666 7.86557 4.98551 8.76543C4.94129 9.73836 4.93244 10.0291 4.93244 12.4937C4.93244 14.9583 4.94129 15.2506 4.98551 16.2235C5.02646 17.1233 5.17701 17.6117 5.30333 17.9367C5.47099 18.3676 5.67096 18.6744 5.99397 18.9975C6.31699 19.3205 6.62462 19.5205 7.05531 19.6877C7.38083 19.8141 7.8692 19.9644 8.76903 20.006C9.74192 20.0502 10.034 20.0598 12.4983 20.0598C14.9625 20.0598 15.2547 20.0502 16.2276 20.006C17.1275 19.9648 17.6162 19.8148 17.9411 19.6879C18.372 19.5207 18.6787 19.3207 19.0017 18.9977C19.3247 18.6748 19.5251 18.3682 19.6924 17.9374C19.8187 17.6125 19.969 17.1241 20.0102 16.2243C20.0544 15.2513 20.064 14.9591 20.064 12.496C20.064 10.0329 20.0544 9.74066 20.0102 8.76774C19.9692 7.86788 19.8187 7.3795 19.6924 7.05455C19.5247 6.62385 19.3247 6.3162 19.0017 5.99318C18.6789 5.67015 18.3718 5.47018 17.9411 5.3029C17.6158 5.17658 17.1275 5.02621 16.2276 4.98507C15.2545 4.94084 14.9625 4.932 12.4983 4.932C12.3918 4.932 12.2894 4.93195 12.1907 4.93191ZM16.3172 7.57158C16.3172 6.95995 16.8133 6.46445 17.4247 6.46445V6.46406C18.0361 6.46406 18.5322 6.96014 18.5322 7.57158C18.5322 8.18302 18.0361 8.6791 17.4247 8.6791C16.8133 8.6791 16.3172 8.18302 16.3172 7.57158ZM7.75883 12.4981C7.75883 9.8807 9.88083 7.75858 12.4981 7.75848C15.1155 7.75848 17.2371 9.88064 17.2371 12.4981C17.2371 15.1156 15.1157 17.2368 12.4983 17.2368C9.88093 17.2368 7.75883 15.1156 7.75883 12.4981ZM15.5747 12.4981C15.5747 10.799 14.1972 9.42167 12.4983 9.42167C10.7992 9.42167 9.42198 10.799 9.42198 12.4981C9.42198 14.1971 10.7992 15.5746 12.4983 15.5746C14.1972 15.5746 15.5747 14.1971 15.5747 12.4981Z" fill="white"/>
</svg>
