<svg width="18" height="18" viewBox="0 0 22 22" fill="none" xmlns="http://www.w3.org/2000/svg">
<g clip-path="url(#clip0)">
<g clip-path="url(#clip1)">
<path d="M8.49337 3.43123C3.30965 5.26944 -0.406853 8.25315 0.238193 10.0722C0.883239 11.8912 5.64919 11.8669 10.8329 10.0287C16.0166 8.19048 19.7331 5.20677 19.0881 3.38776C18.443 1.56874 13.6771 1.59302 8.49337 3.43123ZM1.32775 13.1447L2.91196 17.6121C3.557 19.4311 8.32296 19.4069 13.5067 17.5687C18.6904 15.7304 22.4069 12.7467 21.7619 10.9277L20.1776 6.46029C19.6999 7.11776 19.11 7.6983 18.4058 8.25571C16.6645 9.65837 14.2817 10.9277 11.5014 11.9137C8.721 12.8996 6.07085 13.415 3.83486 13.4228C2.93681 13.4335 2.11297 13.3543 1.32775 13.1447Z" fill="black"/>
</g>
</g>
<defs>
<clipPath id="clip0">
<rect width="22" height="22" fill="black"/>
</clipPath>
<clipPath id="clip1">
<rect width="20" height="15" fill="black" transform="translate(-0.93158 6.77344) rotate(-19.5252)"/>
</clipPath>
</defs>
</svg>
