<svg width="22" height="20" viewBox="0 0 22 20" fill="none" xmlns="http://www.w3.org/2000/svg">
<path d="M20.7963 2.66682H18.0464V4.6668C18.0464 4.85941 18.0073 5.05012 17.9313 5.22807C17.8553 5.40601 17.7438 5.56769 17.6034 5.70388C17.463 5.84007 17.2962 5.94811 17.1127 6.02181C16.9292 6.09552 16.7326 6.13345 16.5339 6.13345C16.3353 6.13345 16.1387 6.09552 15.9552 6.02181C15.7717 5.94811 15.6049 5.84007 15.4645 5.70388C15.324 5.56769 15.2126 5.40601 15.1366 5.22807C15.0606 5.05012 15.0215 4.85941 15.0215 4.6668V2.66682H7.01242V4.6668C7.01242 5.05578 6.85307 5.42883 6.56943 5.70388C6.2858 5.97893 5.9011 6.13345 5.49998 6.13345C5.09885 6.13345 4.71415 5.97893 4.43052 5.70388C4.14688 5.42883 3.98753 5.05578 3.98753 4.6668V2.66682H1.23763C1.07403 2.66502 0.911713 2.69505 0.760286 2.75513C0.608859 2.81522 0.471394 2.90414 0.356023 3.01664C0.240652 3.12914 0.149716 3.26293 0.0885952 3.4101C0.0274742 3.55728 -0.00259141 3.71484 0.000176716 3.87348V18.7933C-0.00255463 18.9492 0.0263998 19.104 0.0853863 19.249C0.144373 19.394 0.232236 19.5263 0.343956 19.6383C0.455677 19.7504 0.589067 19.84 0.736508 19.902C0.883949 19.9641 1.04255 19.9974 1.20326 20H20.7963C20.957 19.9974 21.1156 19.9641 21.263 19.902C21.4105 19.84 21.5439 19.7504 21.6556 19.6383C21.7673 19.5263 21.8552 19.394 21.9142 19.249C21.9731 19.104 22.0021 18.9492 21.9994 18.7933V3.87348C22.0021 3.71764 21.9731 3.5628 21.9142 3.41782C21.8552 3.27283 21.7673 3.14053 21.6556 3.02848C21.5439 2.91643 21.4105 2.82682 21.263 2.76476C21.1156 2.70271 20.957 2.66943 20.7963 2.66682ZM5.49998 16H4.12503V14.6667H5.49998V16ZM5.49998 12.6667H4.12503V11.3334H5.49998V12.6667ZM5.49998 9.33342H4.12503V8.0001H5.49998V9.33342ZM9.62482 16H8.24987V14.6667H9.62482V16ZM9.62482 12.6667H8.24987V11.3334H9.62482V12.6667ZM9.62482 9.33342H8.24987V8.0001H9.62482V9.33342ZM13.7497 16H12.3747V14.6667H13.7497V16ZM13.7497 12.6667H12.3747V11.3334H13.7497V12.6667ZM13.7497 9.33342H12.3747V8.0001H13.7497V9.33342ZM17.8745 16H16.4996V14.6667H17.8745V16ZM17.8745 12.6667H16.4996V11.3334H17.8745V12.6667ZM17.8745 9.33342H16.4996V8.0001H17.8745V9.33342Z" fill="white"/>
<path d="M5.49949 5.33328C5.68182 5.33328 5.85668 5.26304 5.9856 5.13802C6.11453 5.01299 6.18696 4.84343 6.18696 4.66662V0.66666C6.18696 0.489851 6.11453 0.320283 5.9856 0.19526C5.85668 0.0702371 5.68182 0 5.49949 0C5.31716 0 5.1423 0.0702371 5.01337 0.19526C4.88444 0.320283 4.81201 0.489851 4.81201 0.66666V4.66662C4.81201 4.84343 4.88444 5.01299 5.01337 5.13802C5.1423 5.26304 5.31716 5.33328 5.49949 5.33328Z" fill="white"/>
<path d="M16.4985 5.33328C16.6808 5.33328 16.8557 5.26304 16.9846 5.13802C17.1136 5.01299 17.186 4.84343 17.186 4.66662V0.66666C17.186 0.489851 17.1136 0.320283 16.9846 0.19526C16.8557 0.0702371 16.6808 0 16.4985 0C16.3162 0 16.1413 0.0702371 16.0124 0.19526C15.8835 0.320283 15.811 0.489851 15.811 0.66666V4.66662C15.811 4.84343 15.8835 5.01299 16.0124 5.13802C16.1413 5.26304 16.3162 5.33328 16.4985 5.33328Z" fill="white"/>
</svg>
