<svg width="25" height="25" viewBox="0 0 25 25" fill="none" xmlns="http://www.w3.org/2000/svg">
<g clip-path="url(#clip0)">
<path d="M16.3365 0H8.66231C1.65918 0 -0.000976562 1.66016 -0.000976562 8.66328V16.3375C-0.000976562 23.3406 1.65918 25.0008 8.66231 25.0008H16.3365C23.3397 25.0008 24.9998 23.3406 24.9998 16.3375V8.66328C24.9998 1.66016 23.3232 0 16.3365 0ZM20.1818 17.8344H18.367C17.6795 17.8344 17.4678 17.2891 16.2311 16.0359C15.1568 14.9945 14.6811 14.8563 14.4162 14.8563C14.042 14.8563 13.9357 14.9617 13.9357 15.475V17.1148C13.9357 17.5547 13.7975 17.8188 12.6334 17.8188C10.7084 17.8188 8.57246 16.6547 7.07481 14.4859C4.81621 11.3078 4.19824 8.92734 4.19824 8.43516C4.19824 8.17031 4.30371 7.92266 4.81231 7.92266H6.63106C7.09121 7.92266 7.26621 8.13437 7.44512 8.62656C8.34434 11.2227 9.842 13.4969 10.46 13.4969C10.6881 13.4969 10.7936 13.3914 10.7936 12.8094V10.1281C10.724 8.89141 10.0732 8.78516 10.0732 8.34609C10.0732 8.13437 10.2482 7.92266 10.5287 7.92266H13.3889C13.7756 7.92266 13.9178 8.13437 13.9178 8.58984V12.207C13.9178 12.5977 14.0928 12.7359 14.1982 12.7359C14.4264 12.7359 14.6217 12.5977 15.0443 12.1742C16.3506 10.7094 17.2865 8.45078 17.2865 8.45078C17.4084 8.18594 17.6201 7.93828 18.0803 7.93828H19.899C20.4443 7.93828 20.5662 8.21875 20.4443 8.60938C20.2162 9.66719 17.9904 12.8086 17.9904 12.8086C17.799 13.1258 17.7256 13.2641 17.9904 13.618C18.1857 13.8828 18.8209 14.432 19.2436 14.9242C20.0209 15.807 20.6186 16.5477 20.7779 17.0602C20.9568 17.5688 20.6928 17.8336 20.1795 17.8336L20.1818 17.8344Z" fill="#2787F5"/>
</g>
<defs>
<clipPath id="clip0">
<rect width="25" height="25" fill="white"/>
</clipPath>
</defs>
</svg>
