<svg width="25" height="25" viewBox="0 0 25 25" fill="none" xmlns="http://www.w3.org/2000/svg">
<path d="M12.5041 0C7.28545 0 5.75919 0.00538376 5.46252 0.0299953C4.39157 0.11902 3.72515 0.287647 2.99914 0.649128C2.43963 0.926969 1.99836 1.24903 1.56287 1.7005C0.769749 2.52383 0.28907 3.53675 0.115064 4.74079C0.0304644 5.32531 0.0058536 5.44453 0.00085454 8.43021C-0.00106818 9.42544 0.00085454 10.7352 0.00085454 12.4921C0.00085454 17.7066 0.00662269 19.2314 0.031618 19.5275C0.11814 20.5696 0.281571 21.2253 0.62766 21.9425C1.28907 23.3154 2.5523 24.346 4.04048 24.7305C4.55577 24.8632 5.12489 24.9363 5.85552 24.9709C6.16508 24.9843 9.32026 24.9939 12.4774 24.9939C15.6345 24.9939 18.7916 24.9901 19.0934 24.9747C19.9394 24.9349 20.4307 24.869 20.9738 24.7286C22.4716 24.3421 23.7118 23.3269 24.3867 21.9348C24.726 21.2349 24.8981 20.5543 24.976 19.5665C24.9929 19.3512 25 15.9177 25 12.4888C25 9.05934 24.9923 5.63219 24.9754 5.41684C24.8966 4.41315 24.7245 3.73826 24.3742 3.02491C24.0867 2.44096 23.7675 2.00488 23.3042 1.55898C22.4772 0.769109 21.4659 0.288416 20.2607 0.114597C19.6768 0.0301875 19.5604 0.00519149 16.5725 0H12.5041Z" fill="url(#paint0_radial)"/>
<path d="M12.5041 0C7.28545 0 5.75919 0.00538376 5.46252 0.0299953C4.39157 0.11902 3.72515 0.287647 2.99914 0.649128C2.43963 0.926969 1.99836 1.24903 1.56287 1.7005C0.769749 2.52383 0.28907 3.53675 0.115064 4.74079C0.0304644 5.32531 0.0058536 5.44453 0.00085454 8.43021C-0.00106818 9.42544 0.00085454 10.7352 0.00085454 12.4921C0.00085454 17.7066 0.00662269 19.2314 0.031618 19.5275C0.11814 20.5696 0.281571 21.2253 0.62766 21.9425C1.28907 23.3154 2.5523 24.346 4.04048 24.7305C4.55577 24.8632 5.12489 24.9363 5.85552 24.9709C6.16508 24.9843 9.32026 24.9939 12.4774 24.9939C15.6345 24.9939 18.7916 24.9901 19.0934 24.9747C19.9394 24.9349 20.4307 24.869 20.9738 24.7286C22.4716 24.3421 23.7118 23.3269 24.3867 21.9348C24.726 21.2349 24.8981 20.5543 24.976 19.5665C24.9929 19.3512 25 15.9177 25 12.4888C25 9.05934 24.9923 5.63219 24.9754 5.41684C24.8966 4.41315 24.7245 3.73826 24.3742 3.02491C24.0867 2.44096 23.7675 2.00488 23.3042 1.55898C22.4772 0.769109 21.4659 0.288416 20.2607 0.114597C19.6768 0.0301875 19.5604 0.00519149 16.5725 0H12.5041Z" fill="url(#paint1_radial)"/>
<path d="M12.4984 3.2688C9.99191 3.2688 9.67735 3.27976 8.69292 3.32456C7.71041 3.36955 7.03977 3.5251 6.45296 3.75334C5.84595 3.98907 5.33105 4.3044 4.81807 4.81759C4.30471 5.33059 3.98938 5.84551 3.75289 6.45234C3.52408 7.03936 3.36834 7.71021 3.32412 8.69237C3.28009 9.67683 3.26855 9.99159 3.26855 12.4981C3.26855 15.0046 3.27971 15.3182 3.32431 16.3027C3.3695 17.2852 3.52505 17.9559 3.75308 18.5427C3.989 19.1498 4.30432 19.6647 4.81749 20.1777C5.33028 20.6911 5.84519 21.0072 6.4518 21.2429C7.039 21.4711 7.70984 21.6267 8.69215 21.6717C9.67658 21.7165 9.99094 21.7274 12.4972 21.7274C15.0038 21.7274 15.3174 21.7165 16.3019 21.6717C17.2844 21.6267 17.9558 21.4711 18.543 21.2429C19.1498 21.0072 19.6639 20.6911 20.1767 20.1777C20.6901 19.6647 21.0054 19.1498 21.2419 18.5429C21.4688 17.9559 21.6245 17.2851 21.6707 16.3029C21.7149 15.3184 21.7264 15.0046 21.7264 12.4981C21.7264 9.99159 21.7149 9.67702 21.6707 8.69256C21.6245 7.71002 21.4688 7.03936 21.2419 6.45253C21.0054 5.84551 20.6901 5.33059 20.1767 4.81759C19.6634 4.30421 19.15 3.98888 18.5424 3.75334C17.9541 3.5251 17.283 3.36955 16.3005 3.32456C15.3161 3.27976 15.0027 3.2688 12.4955 3.2688H12.4984ZM11.6704 4.932C11.9162 4.93161 12.1903 4.932 12.4984 4.932C14.9625 4.932 15.2546 4.94084 16.2277 4.98507C17.1275 5.02621 17.6159 5.17658 17.9412 5.3029C18.3719 5.47018 18.6789 5.67015 19.0018 5.99318C19.3248 6.3162 19.5247 6.62385 19.6924 7.05455C19.8187 7.3795 19.9693 7.86788 20.0102 8.76774C20.0544 9.74066 20.0641 10.0329 20.0641 12.496C20.0641 14.9591 20.0544 15.2513 20.0102 16.2243C19.9691 17.1241 19.8187 17.6125 19.6924 17.9374C19.5251 18.3681 19.3248 18.6748 19.0018 18.9977C18.6787 19.3207 18.3721 19.5207 17.9412 19.6879C17.6162 19.8148 17.1275 19.9648 16.2277 20.006C15.2548 20.0502 14.9625 20.0598 12.4984 20.0598C10.034 20.0598 9.74195 20.0502 8.76906 20.006C7.86923 19.9644 7.38086 19.8141 7.05534 19.6877C6.62465 19.5205 6.31702 19.3205 5.994 18.9975C5.67099 18.6744 5.47103 18.3676 5.30336 17.9367C5.17704 17.6117 5.02649 17.1233 4.98554 16.2235C4.94132 15.2506 4.93247 14.9583 4.93247 12.4937C4.93247 10.0291 4.94132 9.73836 4.98554 8.76543C5.02669 7.86557 5.17704 7.37719 5.30336 7.05186C5.47064 6.62116 5.67099 6.31351 5.994 5.99048C6.31702 5.66746 6.62465 5.46749 7.05534 5.29982C7.38067 5.17292 7.86923 5.02295 8.76906 4.98161C9.62044 4.94315 9.95038 4.93161 11.6704 4.92969V4.932ZM17.4247 6.46445C16.8133 6.46445 16.3173 6.95995 16.3173 7.57158C16.3173 8.18302 16.8133 8.6791 17.4247 8.6791C18.0362 8.6791 18.5322 8.18302 18.5322 7.57158C18.5322 6.96014 18.0362 6.46406 17.4247 6.46406V6.46445ZM12.4984 7.75848C9.88097 7.75848 7.75886 9.88064 7.75886 12.4981C7.75886 15.1156 9.88097 17.2368 12.4984 17.2368C15.1158 17.2368 17.2371 15.1156 17.2371 12.4981C17.2371 9.88064 15.1156 7.75848 12.4982 7.75848H12.4984ZM12.4984 9.42168C14.1973 9.42168 15.5747 10.799 15.5747 12.4981C15.5747 14.1971 14.1973 15.5746 12.4984 15.5746C10.7993 15.5746 9.42201 14.1971 9.42201 12.4981C9.42201 10.799 10.7993 9.42168 12.4984 9.42168Z" fill="white"/>
<defs>
<radialGradient id="paint0_radial" cx="0" cy="0" r="1" gradientUnits="userSpaceOnUse" gradientTransform="translate(6.64066 26.919) rotate(-90) scale(24.7708 23.0444)">
<stop stop-color="#FFDD55"/>
<stop offset="0.1" stop-color="#FFDD55"/>
<stop offset="0.5" stop-color="#FF543E"/>
<stop offset="1" stop-color="#C837AB"/>
</radialGradient>
<radialGradient id="paint1_radial" cx="0" cy="0" r="1" gradientUnits="userSpaceOnUse" gradientTransform="translate(-4.18763 1.80052) rotate(78.678) scale(11.0728 45.6527)">
<stop stop-color="#3771C8"/>
<stop offset="0.128" stop-color="#3771C8"/>
<stop offset="1" stop-color="#6600FF" stop-opacity="0"/>
</radialGradient>
</defs>
</svg>
