<svg width="22" height="22" viewBox="0 0 22 22" fill="none" xmlns="http://www.w3.org/2000/svg">
<path d="M10.9999 21.335C16.7087 21.335 21.3365 16.7079 21.3365 11.0001C21.3365 5.29235 16.7087 0.665283 10.9999 0.665283C5.29122 0.665283 0.66338 5.29235 0.66338 11.0001C0.66338 16.7079 5.29122 21.335 10.9999 21.335Z" fill="white"/>
<path d="M15.2418 10.8729C14.8414 10.8161 14.4856 11.1358 14.1728 11.3369C13.4973 11.7683 12.9009 12.2685 12.3251 12.8322C11.9693 13.1811 11.4881 13.6452 11.3609 14.1471C11.3025 14.3791 11.3747 14.6455 11.4211 14.8724C11.5018 15.2677 11.6256 15.6527 11.7493 16.036C11.8892 16.4668 12.051 16.8901 12.234 17.3044C12.3251 17.5124 12.4248 17.7186 12.5228 17.9249C12.6139 18.1174 12.674 18.2308 12.8975 18.26C13.1484 18.2927 13.3993 18.2549 13.6486 18.2446C14.0164 18.2308 14.3842 18.1947 14.7468 18.1329C15.2264 18.0521 15.7093 17.9644 16.1683 17.8011C16.5928 17.6482 17.0792 17.411 17.325 17.0208C17.8526 16.1821 18.1723 15.2299 18.3476 14.2588C18.3992 13.9786 18.449 13.6933 18.4473 13.4063C18.449 13.1536 18.4714 12.8941 18.2892 12.6999C17.9626 12.3493 17.5759 12.0588 17.1754 11.7958C16.5825 11.4108 15.962 10.976 15.2418 10.8729Z" fill="black"/>
<path d="M3.58011 6.82C3.20714 7.01766 2.91495 7.4886 2.69667 7.83407C2.26011 8.52157 1.90776 9.31563 1.74276 10.1148C1.61729 10.7267 1.89058 11.3231 2.09511 11.8886C2.29448 12.4334 2.64167 12.8648 3.02151 13.2928C3.11776 13.4028 3.23979 13.4853 3.33604 13.5936C3.44604 13.7156 3.58526 13.8308 3.72964 13.9116C3.83276 13.97 3.92558 13.8909 4.03042 13.8669C4.30714 13.7998 4.51339 13.6589 4.76433 13.5266C4.98948 13.4063 5.22151 13.3048 5.44839 13.1845C5.93479 12.9233 6.51401 12.7084 6.93854 12.3492C6.99354 12.3028 7.06573 12.2444 7.0812 12.1705C7.12073 11.9866 7.06573 11.7477 7.05714 11.5603C7.04683 11.2973 7.04339 11.0361 7.04167 10.7731C7.03995 10.1784 7.06229 9.58375 7.06229 8.98907C7.06745 8.65735 7.1087 8.32735 7.09323 7.99563C7.06573 7.50235 6.53292 7.32703 6.13245 7.22735C5.57042 7.08813 5.00495 6.89735 4.43089 6.82688C4.1937 6.8011 3.80183 6.70313 3.58011 6.82Z" fill="black"/>
<path d="M18.1706 5.33674C18.2239 4.96377 17.9747 4.51518 17.7942 4.18174C17.4367 3.51658 16.9245 2.86346 16.2852 2.3444C15.797 1.94737 15.0786 1.7858 14.41 1.71877C13.212 1.59674 12.2977 1.67065 12.045 1.71018C11.7906 1.74971 11.5517 1.82705 11.4159 1.99549C11.1478 2.32205 11.1014 2.78955 11.0447 3.19174C10.9622 3.7658 10.89 4.35705 10.9656 4.93455C10.9777 5.03768 10.9931 5.17346 11.043 5.26455C11.1375 5.43299 11.3369 5.51721 11.5345 5.60487C12.5589 6.0569 14.5131 7.1758 14.8311 7.32705C15.3055 7.55565 15.8108 7.25143 16.1614 7.00565C16.6478 6.66362 17.1892 6.34221 17.6189 5.95549C17.7959 5.79737 18.138 5.55674 18.1706 5.33674Z" fill="black"/>
<path d="M3.45632 18.1226C3.49757 18.1861 3.5371 18.2343 3.60069 18.2824C3.7021 18.3597 3.79835 18.4388 3.8946 18.523C4.73507 19.2604 5.71991 19.8155 6.69616 20.3483C6.99007 20.5099 7.27022 20.6749 7.56928 20.8244C7.89241 20.9843 8.22585 21.0926 8.57304 21.1888C8.8085 21.2541 9.04741 21.3177 9.29147 21.3418C9.51835 21.3641 9.75038 21.4174 9.97897 21.4208C10.1096 21.4226 10.2299 21.4174 10.3571 21.4002C10.2952 21.3005 10.2402 21.1733 10.1869 21.0668C10.1027 20.9001 10.0168 20.7316 9.93085 20.5666C9.83116 20.3758 9.75382 20.1765 9.65241 19.9874C9.57335 19.843 9.47022 19.6935 9.32757 19.6093C9.13679 19.4958 8.9546 19.3841 8.74663 19.2999C7.98694 18.9905 7.30632 18.554 6.59991 18.1449C6.24241 17.9369 5.89179 17.7152 5.55491 17.4729C5.37444 17.344 5.19913 17.2099 5.00835 17.0947C4.96882 17.069 4.92929 17.038 4.88288 17.0311C4.84163 17.0243 4.77804 17.026 4.73679 17.0311C4.69897 17.0363 4.65429 17.0432 4.61819 17.0501C4.37069 17.1016 4.10257 17.1669 3.84647 17.2236C3.60241 17.2786 3.32913 17.2976 3.09538 17.3869C3.00429 17.4213 3.0146 17.4729 3.05069 17.5519C3.10569 17.6757 3.18647 17.7891 3.27069 17.8922C3.32741 17.9661 3.39788 18.0349 3.45632 18.1226Z" fill="black"/>
<path d="M6.42984 8.3049C6.37164 8.30494 6.31461 8.28852 6.26535 8.25753C6.21608 8.22654 6.17659 8.18224 6.15143 8.12976C6.12627 8.07728 6.11646 8.01875 6.12315 7.96094C6.12984 7.90312 6.15274 7.84837 6.18922 7.80302C6.27344 7.6999 8.25687 5.26958 11.8044 4.71958C11.8443 4.71349 11.8851 4.71532 11.9243 4.72498C11.9636 4.73464 12.0005 4.75193 12.0331 4.77587C12.0656 4.79981 12.0932 4.82993 12.1141 4.86451C12.135 4.89909 12.1489 4.93745 12.155 4.9774C12.1611 5.01735 12.1593 5.05811 12.1496 5.09735C12.1399 5.13659 12.1226 5.17355 12.0987 5.2061C12.0748 5.23866 12.0447 5.26619 12.0101 5.28711C11.9755 5.30802 11.9371 5.32193 11.8972 5.32802C8.59547 5.84193 6.68765 8.1674 6.66875 8.18974C6.60687 8.26537 6.51922 8.3049 6.42984 8.3049Z" fill="black"/>
<path d="M5.69768 19.0954C5.6083 19.0954 5.51893 19.0576 5.45877 18.9819C5.37455 18.8788 3.42033 16.4244 3.63174 12.8426C3.64205 12.6724 3.78643 12.5418 3.95658 12.5521C4.12674 12.5624 4.25565 12.7085 4.24533 12.8786C4.0494 16.2251 5.91768 18.5711 5.93658 18.5935C6.04487 18.7258 6.02252 18.9201 5.8919 19.0266C5.83518 19.0713 5.76643 19.0954 5.69768 19.0954Z" fill="black"/>
<path d="M8.02139 20.3054C7.86326 20.3054 7.7292 20.1851 7.71545 20.0235C7.7017 19.8534 7.82717 19.7038 7.99733 19.6901C8.02654 19.6884 11.0206 19.4065 13.2928 16.9556C13.3487 16.8957 13.426 16.8605 13.5079 16.8576C13.5897 16.8547 13.6694 16.8844 13.7294 16.9401C13.8548 17.0553 13.8617 17.2512 13.7448 17.3767C11.3042 20.0063 8.17951 20.2934 8.04889 20.3054C8.03858 20.3037 8.02998 20.3054 8.02139 20.3054Z" fill="black"/>
<path d="M3.7399 7.9354C3.59552 7.9354 3.46662 7.83399 3.43912 7.68618C3.42193 7.60024 3.03349 5.56353 3.87052 3.1504C3.92724 2.98884 4.10084 2.9029 4.2624 2.95962C4.42224 3.01634 4.50818 3.18993 4.45318 3.35149C3.66943 5.60993 4.03896 7.54696 4.04412 7.56759C4.07677 7.73431 3.96849 7.89759 3.80005 7.93024C3.78115 7.93368 3.76052 7.9354 3.7399 7.9354Z" fill="black"/>
<path d="M12.6964 2.88055C12.6328 2.88055 12.5675 2.85992 12.5142 2.81867C12.4987 2.80836 10.8951 1.64477 8.52841 1.38524C8.35997 1.36805 8.23622 1.21508 8.25513 1.04664C8.27232 0.876487 8.42528 0.756174 8.59372 0.773362C11.134 1.05008 12.8081 2.27039 12.8786 2.32196C13.0143 2.42336 13.0436 2.61586 12.9422 2.75336C12.8837 2.83758 12.7909 2.88055 12.6964 2.88055Z" fill="black"/>
<path d="M20.4755 7.89424C20.3861 7.89424 20.2967 7.85471 20.2349 7.77908C18.7327 5.92111 16.8936 5.20783 16.8764 5.20096C16.8 5.17206 16.7381 5.11408 16.7043 5.03968C16.6705 4.96528 16.6675 4.88052 16.696 4.80393C16.7561 4.64408 16.9349 4.56502 17.093 4.62346C17.1755 4.6544 19.1074 5.40377 20.7127 7.39065C20.821 7.52299 20.7986 7.71721 20.6663 7.82377C20.6113 7.8719 20.5425 7.89424 20.4755 7.89424Z" fill="black"/>
<path d="M15.0356 12.0603C15.0235 12.0603 15.0081 12.0586 14.996 12.0569C14.9559 12.0517 14.9172 12.0387 14.8822 12.0185C14.8471 11.9983 14.8164 11.9714 14.7918 11.9393C14.7672 11.9072 14.7492 11.8705 14.7388 11.8314C14.7284 11.7923 14.7259 11.7515 14.7314 11.7114C15.125 8.76549 14.7382 6.58956 14.7331 6.56721C14.7021 6.40049 14.8121 6.23893 14.9806 6.20971C15.149 6.17706 15.3089 6.29049 15.3398 6.45721C15.3553 6.55003 15.7489 8.75174 15.3415 11.7939C15.3209 11.9486 15.1885 12.0603 15.0356 12.0603Z" fill="black"/>
<path d="M12.3612 14.5766C12.3509 14.5766 12.344 14.5766 12.3337 14.5748C8.50433 14.2362 5.98464 12.0758 5.87808 11.9847C5.81657 11.931 5.7788 11.8551 5.77301 11.7736C5.76721 11.6922 5.79386 11.6117 5.84714 11.5498C5.95886 11.4209 6.15308 11.4072 6.28198 11.5189C6.30777 11.5395 8.76558 13.6416 12.3887 13.9612C12.4675 13.9687 12.5404 14.0062 12.5923 14.0659C12.6442 14.1256 12.6712 14.2029 12.6677 14.282C12.6642 14.361 12.6304 14.4357 12.5733 14.4905C12.5163 14.5454 12.4403 14.5762 12.3612 14.5766Z" fill="black"/>
<path d="M1.36291 11.0448C1.10338 11.0448 0.819786 11.0121 0.555099 10.9107C0.478655 10.8818 0.416761 10.8238 0.382943 10.7494C0.349126 10.675 0.346137 10.5903 0.37463 10.5137C0.436505 10.3555 0.611817 10.2748 0.77338 10.3332C1.34057 10.5497 2.09854 10.328 2.10713 10.3263C2.26869 10.2782 2.44057 10.3693 2.48869 10.5343C2.53854 10.6958 2.44572 10.8677 2.28416 10.9176C2.25838 10.9244 1.85275 11.0448 1.36291 11.0448Z" fill="black"/>
<path d="M18.162 13.6744C18.0452 13.6744 17.9352 13.6074 17.8836 13.4956C17.8114 13.3427 17.8802 13.1588 18.0331 13.0866C18.0503 13.078 19.8413 12.2306 21.2042 10.2781C21.3005 10.1372 21.493 10.1028 21.6322 10.2008C21.7714 10.2988 21.8058 10.4895 21.7095 10.6288C20.2486 12.7239 18.3717 13.6074 18.2927 13.6452C18.248 13.6641 18.205 13.6744 18.162 13.6744Z" fill="black"/>
<path d="M18.1619 18.8771C18.0932 18.8771 18.0244 18.8547 17.966 18.8101C17.2613 18.2549 16.579 17.246 16.5498 17.2047C16.4535 17.0604 16.4913 16.8644 16.6357 16.7665C16.7784 16.6702 16.976 16.708 17.0723 16.8541C17.0791 16.8627 17.7288 17.8218 18.3562 18.3151C18.4919 18.4233 18.516 18.621 18.4094 18.7585C18.3459 18.8341 18.2548 18.8771 18.1619 18.8771Z" fill="black"/>
<path d="M11 21.9518C4.96028 21.9518 0.0480957 17.0397 0.0480957 11C0.0480957 4.962 4.96028 0.0480957 11 0.0480957C17.0397 0.0480957 21.9518 4.962 21.9518 10.9983C21.9518 17.0397 17.0379 21.9518 11 21.9518ZM11 1.28044C5.64091 1.28044 1.28044 5.64091 1.28044 11C1.28044 16.359 5.63919 20.7195 10.9983 20.7195C16.3573 20.7195 20.7178 16.359 20.7178 11C20.7195 5.64091 16.3573 1.28044 11 1.28044Z" fill="black"/>
</svg>
