<svg width="22" height="22" viewBox="0 0 22 22" fill="none" xmlns="http://www.w3.org/2000/svg">
<path d="M11 21.3348C16.7087 21.3348 21.3365 16.7078 21.3365 11C21.3365 5.29223 16.7087 0.665161 11 0.665161C5.29123 0.665161 0.663391 5.29223 0.663391 11C0.663391 16.7078 5.29123 21.3348 11 21.3348Z" fill="white"/>
<path d="M15.2418 10.8727C14.8414 10.816 14.4856 11.1357 14.1728 11.3368C13.4973 11.7682 12.9009 12.2684 12.3251 12.8321C11.9693 13.181 11.4881 13.6451 11.3609 14.1469C11.3025 14.379 11.3746 14.6454 11.4211 14.8723C11.5018 15.2676 11.6256 15.6526 11.7493 16.0359C11.8892 16.4666 12.051 16.89 12.234 17.3043C12.3251 17.5123 12.4248 17.7185 12.5228 17.9248C12.6139 18.1173 12.674 18.2307 12.8975 18.2599C13.1484 18.2926 13.3993 18.2548 13.6486 18.2444C14.0164 18.2307 14.3842 18.1946 14.7468 18.1327C15.2264 18.0519 15.7093 17.9643 16.1682 17.801C16.5928 17.648 17.0792 17.4109 17.325 17.0207C17.8526 16.1819 18.1723 15.2298 18.3476 14.2587C18.3992 13.9785 18.449 13.6932 18.4473 13.4062C18.449 13.1535 18.4714 12.894 18.2892 12.6998C17.9626 12.3491 17.5759 12.0587 17.1754 11.7957C16.5825 11.4107 15.962 10.9759 15.2418 10.8727Z" fill="black"/>
<path d="M3.58008 6.82C3.20711 7.01766 2.91493 7.4886 2.69665 7.83407C2.26008 8.52157 1.90774 9.31563 1.74274 10.1148C1.61727 10.7267 1.89055 11.3231 2.09508 11.8886C2.29446 12.4334 2.64165 12.8648 3.02149 13.2928C3.11774 13.4028 3.23977 13.4853 3.33602 13.5936C3.44602 13.7156 3.58524 13.8308 3.72962 13.9116C3.83274 13.97 3.92555 13.8909 4.0304 13.8669C4.30712 13.7998 4.51336 13.6589 4.7643 13.5266C4.98946 13.4063 5.22149 13.3048 5.44837 13.1845C5.93477 12.9233 6.51399 12.7084 6.93852 12.3492C6.99352 12.3028 7.06571 12.2444 7.08118 12.1705C7.12071 11.9866 7.06571 11.7477 7.05712 11.5603C7.0468 11.2973 7.04337 11.0361 7.04165 10.7731C7.03993 10.1784 7.06227 9.58375 7.06227 8.98907C7.06743 8.65735 7.10868 8.32735 7.09321 7.99563C7.06571 7.50235 6.5329 7.32703 6.13243 7.22735C5.5704 7.08813 5.00493 6.89735 4.43087 6.82688C4.19368 6.8011 3.8018 6.70313 3.58008 6.82Z" fill="black"/>
<path d="M18.1706 5.33674C18.2239 4.96377 17.9747 4.51518 17.7942 4.18174C17.4367 3.51658 16.9246 2.86346 16.2852 2.3444C15.7971 1.94737 15.0786 1.7858 14.41 1.71877C13.2121 1.59674 12.2977 1.67065 12.045 1.71018C11.7906 1.74971 11.5517 1.82705 11.416 1.99549C11.1478 2.32205 11.1014 2.78955 11.0447 3.19174C10.9622 3.7658 10.89 4.35705 10.9656 4.93455C10.9777 5.03768 10.9931 5.17346 11.043 5.26455C11.1375 5.43299 11.3369 5.51721 11.5346 5.60487C12.5589 6.0569 14.5131 7.1758 14.8311 7.32705C15.3055 7.55565 15.8108 7.25143 16.1614 7.00565C16.6478 6.66362 17.1892 6.34221 17.6189 5.95549C17.796 5.79737 18.138 5.55674 18.1706 5.33674Z" fill="black"/>
<path d="M3.45629 18.1226C3.49754 18.1861 3.53707 18.2343 3.60066 18.2824C3.70207 18.3597 3.79832 18.4388 3.89457 18.523C4.73504 19.2604 5.71988 19.8155 6.69613 20.3483C6.99004 20.5099 7.27019 20.6749 7.56925 20.8244C7.89238 20.9843 8.22582 21.0926 8.573 21.1888C8.80847 21.2541 9.04738 21.3177 9.29144 21.3418C9.51832 21.3641 9.75035 21.4174 9.97894 21.4208C10.1096 21.4226 10.2299 21.4174 10.3571 21.4002C10.2952 21.3005 10.2402 21.1733 10.1869 21.0668C10.1027 20.9001 10.0168 20.7316 9.93082 20.5666C9.83113 20.3758 9.75379 20.1765 9.65238 19.9874C9.57332 19.843 9.47019 19.6935 9.32754 19.6093C9.13675 19.4958 8.95457 19.3841 8.7466 19.2999C7.98691 18.9905 7.30629 18.554 6.59988 18.1449C6.24238 17.9369 5.89175 17.7152 5.55488 17.4729C5.37441 17.344 5.1991 17.2099 5.00832 17.0947C4.96879 17.069 4.92925 17.038 4.88285 17.0311C4.8416 17.0243 4.778 17.026 4.73675 17.0311C4.69894 17.0363 4.65426 17.0432 4.61816 17.0501C4.37066 17.1016 4.10254 17.1669 3.84644 17.2236C3.60238 17.2786 3.3291 17.2976 3.09535 17.3869C3.00426 17.4213 3.01457 17.4729 3.05066 17.5519C3.10566 17.6757 3.18644 17.7891 3.27066 17.8922C3.32738 17.9661 3.39785 18.0349 3.45629 18.1226Z" fill="black"/>
<path d="M6.42983 8.3049C6.37163 8.30494 6.3146 8.28852 6.26534 8.25753C6.21607 8.22654 6.17658 8.18224 6.15142 8.12976C6.12625 8.07728 6.11645 8.01875 6.12314 7.96094C6.12982 7.90312 6.15273 7.84837 6.18921 7.80302C6.27342 7.6999 8.25686 5.26958 11.8044 4.71958C11.8443 4.71349 11.8851 4.71532 11.9243 4.72498C11.9636 4.73464 12.0005 4.75193 12.0331 4.77587C12.0656 4.79981 12.0932 4.82993 12.1141 4.86451C12.135 4.89909 12.1489 4.93745 12.155 4.9774C12.1611 5.01735 12.1592 5.05811 12.1496 5.09735C12.1399 5.13659 12.1226 5.17355 12.0987 5.2061C12.0748 5.23866 12.0446 5.26619 12.0101 5.28711C11.9755 5.30802 11.9371 5.32193 11.8972 5.32802C8.59546 5.84193 6.68764 8.1674 6.66874 8.18974C6.60686 8.26537 6.51921 8.3049 6.42983 8.3049Z" fill="black"/>
<path d="M5.6977 19.0952C5.60833 19.0952 5.51895 19.0574 5.4588 18.9818C5.37458 18.8787 3.42036 16.4243 3.63177 12.8424C3.64208 12.6723 3.78645 12.5417 3.95661 12.552C4.12677 12.5623 4.25567 12.7084 4.24536 12.8785C4.04942 16.2249 5.9177 18.571 5.93661 18.5934C6.04489 18.7257 6.02255 18.9199 5.89192 19.0265C5.8352 19.0712 5.76645 19.0952 5.6977 19.0952Z" fill="black"/>
<path d="M8.02138 20.3053C7.86326 20.3053 7.7292 20.185 7.71545 20.0234C7.7017 19.8533 7.82717 19.7037 7.99732 19.69C8.02654 19.6883 11.0206 19.4064 13.2928 16.9554C13.3487 16.8956 13.426 16.8604 13.5079 16.8575C13.5897 16.8546 13.6693 16.8843 13.7293 16.94C13.8548 17.0551 13.8617 17.2511 13.7448 17.3765C11.3042 20.0062 8.17951 20.2933 8.04888 20.3053C8.03857 20.3036 8.02998 20.3053 8.02138 20.3053Z" fill="black"/>
<path d="M3.73991 7.9354C3.59553 7.9354 3.46662 7.83399 3.43912 7.68618C3.42194 7.60024 3.0335 5.56353 3.87053 3.1504C3.92725 2.98884 4.10084 2.9029 4.26241 2.95962C4.42225 3.01634 4.50819 3.18993 4.45319 3.35149C3.66944 5.60993 4.03897 7.54696 4.04413 7.56759C4.07678 7.73431 3.9685 7.89759 3.80006 7.93024C3.78116 7.93368 3.76053 7.9354 3.73991 7.9354Z" fill="black"/>
<path d="M12.6964 2.88055C12.6328 2.88055 12.5675 2.85992 12.5142 2.81867C12.4987 2.80836 10.8951 1.64477 8.52842 1.38524C8.35999 1.36805 8.23624 1.21508 8.25514 1.04664C8.27233 0.876487 8.4253 0.756174 8.59374 0.773362C11.1341 1.05008 12.8081 2.27039 12.8786 2.32196C13.0144 2.42336 13.0436 2.61586 12.9422 2.75336C12.8837 2.83758 12.7909 2.88055 12.6964 2.88055Z" fill="black"/>
<path d="M20.4755 7.89412C20.3861 7.89412 20.2968 7.85459 20.2349 7.77896C18.7327 5.92099 16.8936 5.20771 16.8764 5.20084C16.8 5.17194 16.7381 5.11396 16.7043 5.03956C16.6705 4.96516 16.6675 4.8804 16.696 4.80381C16.7561 4.64396 16.9349 4.5649 17.093 4.62334C17.1755 4.65427 19.1074 5.40365 20.7127 7.39052C20.821 7.52287 20.7986 7.71709 20.6663 7.82365C20.6113 7.87177 20.5425 7.89412 20.4755 7.89412Z" fill="black"/>
<path d="M15.0356 12.0605C15.0235 12.0605 15.0081 12.0587 14.996 12.057C14.9559 12.0519 14.9172 12.0388 14.8821 12.0186C14.8471 11.9984 14.8164 11.9715 14.7918 11.9394C14.7672 11.9073 14.7491 11.8706 14.7388 11.8315C14.7284 11.7924 14.7259 11.7516 14.7313 11.7116C15.1249 8.76562 14.7382 6.58968 14.7331 6.56734C14.7021 6.40062 14.8121 6.23905 14.9806 6.20984C15.149 6.17718 15.3088 6.29062 15.3398 6.45734C15.3552 6.55015 15.7488 8.75187 15.3415 11.7941C15.3209 11.9487 15.1885 12.0605 15.0356 12.0605Z" fill="black"/>
<path d="M12.3612 14.5767C12.3509 14.5767 12.344 14.5767 12.3337 14.575C8.50432 14.2364 5.98463 12.0759 5.87807 11.9848C5.81656 11.9311 5.77879 11.8552 5.773 11.7738C5.7672 11.6923 5.79385 11.6119 5.84713 11.55C5.95885 11.4211 6.15307 11.4073 6.28197 11.519C6.30775 11.5396 8.76557 13.6417 12.3887 13.9614C12.4675 13.9688 12.5404 14.0063 12.5923 14.066C12.6442 14.1257 12.6712 14.2031 12.6677 14.2821C12.6641 14.3612 12.6304 14.4358 12.5733 14.4907C12.5163 14.5455 12.4403 14.5763 12.3612 14.5767Z" fill="black"/>
<path d="M1.36291 11.0446C1.10338 11.0446 0.819782 11.012 0.555095 10.9106C0.478652 10.8817 0.416757 10.8237 0.38294 10.7493C0.349123 10.6749 0.346134 10.5901 0.374626 10.5135C0.436501 10.3554 0.611814 10.2746 0.773376 10.3331C1.34056 10.5496 2.09853 10.3279 2.10713 10.3262C2.26869 10.2781 2.44056 10.3692 2.48869 10.5342C2.53853 10.6957 2.44572 10.8676 2.28416 10.9174C2.25838 10.9243 1.85275 11.0446 1.36291 11.0446Z" fill="black"/>
<path d="M18.1621 13.6744C18.0452 13.6744 17.9352 13.6074 17.8836 13.4956C17.8114 13.3427 17.8802 13.1588 18.0332 13.0866C18.0503 13.078 19.8413 12.2306 21.2043 10.2781C21.3005 10.1372 21.493 10.1028 21.6322 10.2008C21.7714 10.2988 21.8058 10.4895 21.7096 10.6288C20.2486 12.7239 18.3717 13.6074 18.2927 13.6452C18.248 13.6641 18.205 13.6744 18.1621 13.6744Z" fill="black"/>
<path d="M18.1619 18.877C18.0932 18.877 18.0244 18.8546 17.966 18.8099C17.2613 18.2548 16.579 17.2459 16.5498 17.2046C16.4535 17.0602 16.4913 16.8643 16.6357 16.7663C16.7784 16.6701 16.976 16.7079 17.0723 16.854C17.0791 16.8626 17.7288 17.8217 18.3562 18.3149C18.4919 18.4232 18.516 18.6209 18.4094 18.7584C18.3459 18.834 18.2548 18.877 18.1619 18.877Z" fill="black"/>
<path d="M11 21.9518C4.96028 21.9518 0.0480957 17.0397 0.0480957 11C0.0480957 4.962 4.96028 0.0480957 11 0.0480957C17.0397 0.0480957 21.9518 4.962 21.9518 10.9983C21.9518 17.0397 17.0379 21.9518 11 21.9518ZM11 1.28044C5.64091 1.28044 1.28044 5.64091 1.28044 11C1.28044 16.359 5.63919 20.7195 10.9983 20.7195C16.3573 20.7195 20.7178 16.359 20.7178 11C20.7195 5.64091 16.3573 1.28044 11 1.28044Z" fill="black"/>
</svg>
