<svg width="22" height="17" viewBox="0 0 22 17" fill="none" xmlns="http://www.w3.org/2000/svg">
<path d="M8.49334 1.43123C3.30962 3.26944 -0.406884 6.25315 0.238162 8.07217C0.883208 9.89118 5.64916 9.86691 10.8329 8.02869C16.0166 6.19048 19.7331 3.20677 19.0881 1.38776C18.443 -0.43126 13.6771 -0.406983 8.49334 1.43123ZM1.32772 11.1447L2.91193 15.6121C3.55697 17.4311 8.32293 17.4069 13.5066 15.5687C18.6904 13.7304 22.4069 10.7467 21.7618 8.92771L20.1776 4.46029C19.6999 5.11776 19.11 5.6983 18.4058 6.25571C16.6645 7.65837 14.2817 8.92773 11.5013 9.91368C8.72097 10.8996 6.07082 11.415 3.83483 11.4228C2.93678 11.4335 2.11294 11.3543 1.32772 11.1447Z" fill="black"/>
</svg>
