<svg width="25" height="25" viewBox="0 0 25 25" fill="none" xmlns="http://www.w3.org/2000/svg">
<path fill-rule="evenodd" clip-rule="evenodd" d="M9.13249 0.0088731C9.01207 0.0143444 8.55465 0.0338534 8.11598 0.0522057C3.73506 0.23576 1.84529 1.05058 0.918579 3.15552C0.406947 4.31765 0.163486 5.75016 0.0405978 8.32148C-0.0135743 9.45498 -0.0135117 15.5235 0.0406603 16.6847C0.163673 19.3203 0.42612 20.7888 0.982478 21.9546C1.56617 23.1777 2.40693 23.872 3.87039 24.3397C5.4538 24.8457 7.47049 24.9998 12.5104 25C17.9416 25.0002 20.0052 24.8115 21.6074 24.1683C23.5201 23.4003 24.4033 21.9732 24.7683 19.0608C24.9454 17.6477 24.9779 16.8103 24.9962 13.1831C25.0213 8.21356 24.9272 6.3682 24.5634 4.6948C23.9547 1.89562 22.5702 0.718546 19.3445 0.257957C18.7504 0.173137 17.9566 0.102198 16.9987 0.0483914C16.4485 0.0174708 9.69107 -0.0164824 9.13249 0.0088731ZM12.5587 1.55762C12.6357 1.84341 12.6998 2.42871 12.8081 3.83502C12.9752 6.0035 13.2047 7.16441 13.6808 8.24954C14.2625 9.5755 15.4031 10.7141 16.7457 11.3092C17.8217 11.7862 19.0058 12.0172 21.2993 12.198C22.7311 12.3108 23.2029 12.3636 23.434 12.4367C23.7715 12.5435 23.2961 12.6241 21.4244 12.7775C20.0585 12.8894 19.621 12.9371 18.9696 13.0454C17.1181 13.3531 15.8675 13.9501 14.8406 15.0165C13.9624 15.9284 13.4213 17.0477 13.1224 18.5708C12.9676 19.3597 12.9097 19.8659 12.7441 21.8746C12.6524 22.9867 12.5706 23.5317 12.4954 23.5317C12.4121 23.5317 12.3451 23.0167 12.1966 21.2337C12.0154 19.0573 11.838 18.0672 11.449 17.061C10.8409 15.4878 9.69367 14.2907 8.17094 13.6406C7.10288 13.1846 6.05401 12.984 3.73656 12.7924C2.36634 12.6791 2.27698 12.6705 1.90747 12.6162C1.61903 12.5738 1.45395 12.5304 1.45395 12.4971C1.45395 12.4103 1.97328 12.3383 3.5026 12.2131C5.56555 12.0441 6.38076 11.9242 7.30819 11.653C9.28953 11.0736 10.7126 9.79388 11.4452 7.93258C11.8347 6.94275 12.0441 5.7688 12.1982 3.70997C12.2861 2.53655 12.3793 1.71441 12.4508 1.48237C12.4791 1.39089 12.5218 1.42068 12.5587 1.55762Z" fill="red"/>
</svg>
