<svg viewBox="0 0 20 20" fill="gray" xmlns="http://www.w3.org/2000/svg">
    <path xmlns="http://www.w3.org/2000/svg" d="m14.1 14.5-.9-.9 1.3-3.9 1.4-.4 2.8 1.6c-.1 1.3-.5 2.6-1.2 3.8h-3.4zm2 1.6c-.7.7-1.6 1.3-2.5 1.7l.7-2h2c-.1.1-.1.2-.2.3zm-4.2-3.2h-3.8l-1.2-3.6 3.1-2.3 3.1 2.3zm.1 5.5c-.6.2-1.3.2-2 .2s-1.3-.1-2-.2l-1-3 1.1-1.1h3.8l1.1 1.1zm-6.1-3.9h-3.3c-.7-1.1-1.1-2.4-1.2-3.8l2.8-1.6 1.4.4 1.3 3.9zm-2 1.6c-.1-.1-.1-.2-.2-.2h2l.7 2c-.9-.5-1.8-1.1-2.5-1.8zm-1.4-10.4.7 2.4-1.8 1c.1-1.2.5-2.3 1.1-3.4zm1.4-1.8c.7-.7 1.4-1.2 2.2-1.6l3.2 2.2v1.4l-3.3 2.4-1.4-.4-1.1-3.6c.2-.1.3-.3.4-.4zm6.1-2.5c.8 0 1.6.1 2.3.3l-2.3 1.6-2.3-1.6c.7-.2 1.5-.3 2.3-.3zm6.1 2.5c.1.1.3.3.4.4l-1.1 3.6-1.4.4-3.3-2.4v-1.4l3.2-2.2c.8.4 1.5.9 2.2 1.6zm1.4 1.8c.6 1.1 1 2.2 1.1 3.4l-1.9-1zm-.4-2.8c-1.9-1.9-4.4-2.9-7.1-2.9s-5.2 1-7.1 2.9-2.9 4.4-2.9 7.1 1 5.2 2.9 7.1 4.4 2.9 7.1 2.9 5.2-1 7.1-2.9 2.9-4.4 2.9-7.1-1-5.2-2.9-7.1z"/>
</svg>
