<svg xmlns="http://www.w3.org/2000/svg" viewBox="0 0 912.37 120.95"><defs><style>.cls-1{opacity:0.75;}.cls-2{fill:#fff;}</style></defs><g id="Слой_2" data-name="Слой 2"><g id="Слой_1-2" data-name="Слой 1"><g class="cls-1"><path class="cls-2" d="M659.41,39.44Q657,53.8,648.17,59.57q6.39,4.46,6.39,14.68a35.2,35.2,0,0,1-.48,5.94l-1.77,11.39q-2.37,14.85-9.41,22.11T623.32,121H537L555.29.33h85.42q20.84,0,20.83,21a53.92,53.92,0,0,1-.71,8.41Zm-82.11,33-2.25,14.68h42.36c1.49,0,2.44-1,2.84-3l1.3-8.74a1.57,1.57,0,0,1,.06-.5,1,1,0,0,0,.06-.33c0-1.43-.68-2.14-2-2.14Zm4.26-27.72h42.35c1.5,0,2.45-1,2.84-3l.59-4.62a1.57,1.57,0,0,1,.06-.5,1,1,0,0,0,.06-.33c0-1.43-.67-2.14-2-2.14H583.09Z"/><path class="cls-2" d="M708.63,43.89H762.7L758.2,73.1H704.13l-2,13.2h71.82L768.73,121H662.84L681.18.33H787.07L781.75,35H709.93Z"/><path class="cls-2" d="M819.61,121l13-86H792.28L797.6.33H912.37L907,35H866.7l-13,86Z"/></g><g class="cls-1"><path class="cls-2" d="M101.35,43.56q22.66,0,22.66,21a49.79,49.79,0,0,1-.77,8.41l-3.09,18.32q-5,29.37-31.55,29.37H0L5.67,86H81.9c1.63,0,2.66-1,3.09-3l1.16-7.26a1.57,1.57,0,0,1,.06-.5.78.78,0,0,0,.07-.33,1.91,1.91,0,0,0-2.19-2.14H34.25q-22.53,0-22.53-21a49.79,49.79,0,0,1,.77-8.41l2.32-14Q19.57,0,46.36,0h85.25l-5.8,34.65H52.93c-1.72,0-2.71.94-3,2.81l-.51,3.13a2.77,2.77,0,0,0-.13,1q0,2,2.19,2Z"/><path class="cls-2" d="M165.48,120.62l14.16-86H135.73L141.52,0H266.44l-5.8,34.65H216.73l-14.17,86Z"/><path class="cls-2" d="M375.12,0Q395.6,0,395.6,18.65a34,34,0,0,1-.19,3.63c-.13,1.21-.28,2.47-.45,3.79l-15.59,94.55H342.29L348,86H300.43l-5.66,34.66H257.68l15.58-94.55q2.19-13,9.34-19.55T301.85,0ZM305.33,56.76h47.52l3.22-19.3v-.67a1.92,1.92,0,0,0-2.19-2.14H311.51c-1.72,0-2.71.94-3,2.81Z"/><path class="cls-2" d="M434.49,120.62l14.16-86H404.74L410.54,0H535.45l-5.8,34.65H485.74l-14.16,86Z"/></g></g></g></svg>