<svg width="18" height="18" viewBox="0 0 24 24" fill="none" xmlns="http://www.w3.org/2000/svg">
<path d="M12 21C7 21 3 17 3 12C3 11.4 3.4 11 4 11C4.6 11 5 11.4 5 12C5 15.9 8.1 19 12 19C13.9 19 15.6 18.3 17 17C17.4 16.6 18 16.6 18.4 17C18.8 17.4 18.8 18 18.4 18.4C16.7 20.1 14.4 21 12 21Z" fill="#008000"/>
<path d="M19.7 13C19.1 13 18.7 12.6 18.7 12C18.7 8.1 15.6 5 11.7 5C9.8 5 8.1 5.7 6.7 7C6.4 7.4 5.7 7.4 5.3 7C4.9 6.6 4.9 6 5.3 5.6C7 3.9 9.3 3 11.7 3C16.7 3 20.7 7 20.7 12C20.7 12.6 20.3 13 19.7 13Z" fill="#FD0202"/>
<path d="M20 12.9999C19.8 12.9999 19.6 12.8999 19.4 12.7999L16 10.2999C15.6 9.99995 15.5 9.29995 15.8 8.89995C16.1 8.49995 16.8 8.39995 17.2 8.69995L20.6 11.1999C21 11.4999 21.1 12.1999 20.8 12.5999C20.6 12.8999 20.3 12.9999 20 12.9999V12.9999Z" fill="#FF1506"/>
<path d="M7.59999 15.5001C7.39999 15.5001 7.19999 15.4001 6.99999 15.3001L3.59999 12.8001C3.19999 12.5001 3.09999 11.8001 3.39999 11.4001C3.69999 11.0001 4.29999 10.9001 4.79999 11.2001L8.19999 13.7001C8.59999 14.0001 8.69999 14.7001 8.39999 15.1001C8.19999 15.4001 7.89999 15.5001 7.59999 15.5001Z" fill="#008000"/>
<path d="M1.50001 16.3999C1.30001 16.3999 1.10001 16.2999 0.900007 16.1999C0.500007 15.8999 0.400007 15.1999 0.700007 14.7999L3.20001 11.3999C3.50001 10.9999 4.10001 10.8999 4.60001 11.1999C5.00001 11.4999 5.10001 12.1999 4.80001 12.5999L2.30001 15.9999C2.10001 16.2999 1.80001 16.3999 1.50001 16.3999V16.3999Z" fill="#008000"/>
<path d="M19.9744 13.3744C19.7744 13.3744 19.5744 13.2744 19.3744 13.1744C18.9744 12.8744 18.8744 12.1744 19.1744 11.7744L21.6744 8.37443C21.9744 7.97443 22.6744 7.87443 23.0744 8.17443C23.4744 8.47443 23.5744 9.17443 23.2744 9.57443L20.7744 12.9744C20.5744 13.2744 20.2744 13.3744 19.9744 13.3744Z" fill="#FE0606"/>
<path d="M19.9744 13.3744C19.7744 13.3744 19.5744 13.2744 19.3744 13.1744C18.9744 12.8744 18.8744 12.1744 19.1744 11.7744L21.6744 8.37443C21.9744 7.97443 22.6744 7.87443 23.0744 8.17443C23.4744 8.47443 23.5744 9.17443 23.2744 9.57443L20.7744 12.9744C20.5744 13.2744 20.2744 13.3744 19.9744 13.3744Z" fill="#FE0606"/>
</svg>
