<svg width="27" height="27" viewBox="0 0 27 27" fill="none" xmlns="http://www.w3.org/2000/svg">
<g clip-path="url(#clip0_1056_16)">
<path d="M20.8659 8.68595C20.6548 8.92035 20.3468 9.04816 20.041 9.02358C19.9291 9.01929 19.8428 8.9223 19.8577 8.82C19.862 8.70811 19.959 8.62181 20.0613 8.63675C20.2553 8.65704 20.4439 8.57609 20.5782 8.42693C20.8181 8.16057 20.8064 7.74496 20.5294 7.49554C20.263 7.2557 19.8378 7.27799 19.598 7.54435C19.4637 7.69351 19.4125 7.87892 19.4327 8.07075C19.4487 8.18158 19.3826 8.27641 19.2718 8.29237C19.1609 8.30833 19.0661 8.24224 19.0501 8.1314C19.0033 7.81916 19.0886 7.51013 19.2997 7.27574C19.6834 6.84956 20.3516 6.81454 20.7778 7.19827C21.2253 7.60119 21.2496 8.25977 20.8659 8.68595Z" fill="white"/>
<path d="M20.2296 8.94266L19.7692 9.45407C19.6924 9.53931 19.5709 9.54567 19.4857 9.46893C19.4005 9.39218 19.3941 9.27069 19.4708 9.18546L19.9313 8.67404C19.9697 8.63143 19.9665 8.57068 19.9239 8.53231L19.5616 8.20614C19.519 8.16777 19.4583 8.17095 19.4199 8.21357L18.9594 8.72498C18.8827 8.81021 18.7612 8.81658 18.676 8.73984C18.5907 8.66309 18.5844 8.5416 18.6611 8.45637L19.1216 7.94495C19.3039 7.74252 19.6182 7.7362 19.8207 7.91847L20.1829 8.24464C20.3853 8.42691 20.4119 8.74022 20.2296 8.94266Z" fill="white"/>
<path d="M19.7072 15.0509C18.9781 15.8607 17.9698 16.3805 16.8796 16.4985C15.6285 16.6453 14.369 16.2444 13.4208 15.3906C13.1118 15.1123 12.8763 15.0739 12.4979 15.2156C12.3487 15.2742 12.2006 15.353 12.0237 15.4638L6.67647 19.0027C6.5976 19.0474 6.50596 19.0421 6.44203 18.9845L5.35528 18.006C5.27004 17.9293 5.26368 17.8078 5.34042 17.7225L11.1348 11.2873C11.2115 11.202 11.333 11.1957 11.4182 11.2724L11.9403 11.7425C11.9723 11.7713 12.0128 11.7691 12.0415 11.7372L12.9817 10.693C13.0105 10.6611 13.0084 10.6206 12.9764 10.5918L12.4543 10.1217C12.3691 10.045 12.3627 9.92349 12.4395 9.83826L13.111 9.09245C13.9552 8.15486 15.1553 7.61484 16.4245 7.61938C17.7032 7.61327 18.8785 8.15063 19.7511 9.10991C21.1201 10.632 21.2422 12.9605 20.061 14.6365C19.9278 14.8059 19.8223 14.9231 19.7072 15.0509ZM6.58385 18.5913L11.8042 15.1504C12.0003 15.0183 12.1879 14.9171 12.3574 14.8575C12.8849 14.6573 13.2749 14.7383 13.6798 15.1029C14.5428 15.8799 15.6894 16.2564 16.8499 16.1245C18.0104 15.9926 19.0346 15.3907 19.7158 14.4414C20.8031 12.9124 20.6821 10.7971 19.442 9.41036C18.6547 8.52782 17.5838 8.0459 16.4169 8.0563C15.2596 8.05604 14.1683 8.53961 13.4008 9.39196L12.8636 9.98861L13.2365 10.3244C13.4282 10.4971 13.4431 10.7805 13.2704 10.9723L12.3303 12.0164C12.1576 12.2082 11.8741 12.2231 11.6824 12.0504L11.3094 11.7146L5.77411 17.8622L6.58385 18.5913Z" fill="white"/>
<path d="M18.4446 14.0105C17.4086 15.1612 15.6363 15.244 14.4963 14.2175C13.3456 13.1814 13.2629 11.4092 14.2894 10.2692C15.3255 9.11848 17.0977 9.03575 18.2377 10.0622C19.3777 11.0887 19.4807 12.8599 18.4446 14.0105ZM14.5664 10.5186C13.6742 11.5094 13.7538 13.028 14.7447 13.9202C15.7355 14.8124 17.2541 14.7328 18.1463 13.7419C19.0385 12.7511 18.9589 11.2325 17.968 10.3403C16.9878 9.45773 15.4586 9.52772 14.5664 10.5186ZM11.6284 10.4391C11.5517 10.5243 11.4302 10.5307 11.3449 10.4539L9.62958 8.90941C9.54434 8.83266 9.53798 8.71117 9.61472 8.62594C9.69147 8.5407 9.81296 8.53434 9.89819 8.61108L11.6136 10.1556C11.6988 10.2323 11.7052 10.3538 11.6284 10.4391ZM11.0624 11.0677C11.0144 11.121 10.9345 11.1454 10.8621 11.1188L8.6275 10.5151C8.52414 10.4799 8.45809 10.3819 8.49328 10.2785C8.52847 10.1752 8.62653 10.1091 8.72989 10.1443L10.9644 10.748C11.0678 10.7832 11.1338 10.8812 11.0987 10.9846C11.1104 11.0144 11.0816 11.0464 11.0624 11.0677ZM12.1944 9.81046C12.1752 9.83177 12.156 9.85308 12.1262 9.86479C12.0271 9.91059 11.912 9.84556 11.8769 9.75604L11.0429 7.59683C10.9971 7.49771 11.0622 7.38264 11.1517 7.34749C11.2508 7.30169 11.3659 7.36672 11.401 7.45624L12.235 9.61545C12.269 9.68473 12.2424 9.75719 12.1944 9.81046Z" fill="white"/>
</g>
<defs>
<clipPath id="clip0_1056_16">
<rect width="18.3513" height="18.3513" fill="white" transform="translate(0.614075 13.7369) rotate(-48)"/>
</clipPath>
</defs>
</svg>
