<svg xmlns="http://www.w3.org/2000/svg"  viewBox="0 0 20 20">
    <path fill="none" d="m9.346 0-2.101 6.847-6.841-.015-.404 1.309 5.544 4.213-2.129 6.837 1.058.809 5.526-4.242 5.527 4.242 1.058-.809-2.129-6.837 5.545-4.213-.403-1.309-6.843.015-2.099-6.847z"/>
    <path fill="gray" d="m9.346 0-2.101 6.847-6.841-.015-.404 1.309 5.544 4.213-2.129 6.837 1.058.809 5.527-4.242 5.526 4.242 1.058-.809-2.129-6.837 5.545-4.213-.403-1.309-6.843.015-2.099-6.847zm-.947 7.793 1.601-5.218 1.601 5.218.656.5 5.212-.011-4.223 3.211-.251.809 1.622 5.209-4.212-3.23h-.81l-4.21 3.23 1.621-5.209-.251-.809-4.225-3.211 5.214.011c.001 0 .655-.5.655-.5z"/>
</svg>