<svg width="20" height="12" viewBox="0 0 20 12" fill="none" xmlns="http://www.w3.org/2000/svg">
<rect width="20" height="12" rx="1" fill="white"/>
<rect x="1.11111" y="1" width="17.7778" height="10" fill="black"/>
<path d="M2.94318 3.18182L4.67045 8.07955H4.73864L6.46591 3.18182H7.20455L5.06818 9H4.34091L2.20455 3.18182H2.94318ZM7.84943 9H7.1108L9.24716 3.18182H9.97443L12.1108 9H11.3722L9.63352 4.10227H9.58807L7.84943 9ZM8.12216 6.72727H11.0994V7.35227H8.12216V6.72727ZM13.017 9V3.18182H14.983C15.4375 3.18182 15.8106 3.25947 16.1023 3.41477C16.3939 3.56818 16.6098 3.77936 16.75 4.0483C16.8902 4.31723 16.9602 4.62311 16.9602 4.96591C16.9602 5.30871 16.8902 5.61269 16.75 5.87784C16.6098 6.14299 16.3949 6.35133 16.1051 6.50284C15.8153 6.65246 15.4451 6.72727 14.9943 6.72727H13.4034V6.09091H14.9716C15.2822 6.09091 15.5322 6.04545 15.7216 5.95455C15.9129 5.86364 16.0511 5.73485 16.1364 5.56818C16.2235 5.39962 16.267 5.19886 16.267 4.96591C16.267 4.73295 16.2235 4.52936 16.1364 4.35511C16.0492 4.18087 15.91 4.0464 15.7188 3.9517C15.5275 3.85511 15.2746 3.80682 14.9602 3.80682H13.7216V9H13.017ZM15.7557 6.38636L17.1875 9H16.3693L14.9602 6.38636H15.7557Z" fill="white"/>
</svg>
